<?xml version="1.0" encoding="UTF-8"?>
<svg viewBox="0 0 600 570" xmlns="http://www.w3.org/2000/svg" xmlns:xlink="http://www.w3.org/1999/xlink">
 <defs>
  <linearGradient id="e">
   <stop stop-color="#9e0000" stop-opacity="0" offset="0"/>
   <stop stop-color="#df0000" offset="1"/>
  </linearGradient>
  <linearGradient id="f">
   <stop stop-color="#73d500" offset="0"/>
   <stop stop-color="#004700" offset="1"/>
  </linearGradient>
  <linearGradient id="c">
   <stop stop-color="#fff7cf" offset="0"/>
   <stop stop-color="#ffda62" offset="1"/>
  </linearGradient>
  <linearGradient id="g">
   <stop stop-opacity="0" offset="0"/>
   <stop stop-color="#ad0000" stop-opacity=".0902" offset="1"/>
  </linearGradient>
  <linearGradient id="d">
   <stop stop-color="#ffd200" offset="0"/>
   <stop stop-color="#ff8500" offset="1"/>
  </linearGradient>
  <linearGradient id="j">
   <stop stop-opacity=".05098" offset="0"/>
   <stop stop-color="#ad0000" stop-opacity=".0902" offset="1"/>
  </linearGradient>
  <linearGradient id="b">
   <stop stop-color="#ff6a00" offset="0"/>
   <stop stop-color="#ff9f00" offset="1"/>
  </linearGradient>
  <linearGradient id="q" x1="-.11428" x2=".57143" y1=".35938" y2=".73438">
   <stop stop-opacity=".52941" offset="0"/>
   <stop stop-opacity="0" offset="1"/>
  </linearGradient>
  <linearGradient id="ab" x1="-.36446" x2="-.03125" y1=".11709" y2="1.2422" xlink:href="#b"/>
  <linearGradient id="aa" x2="0" y1=".17174" y2="1.0156" xlink:href="#b"/>
  <linearGradient id="z" xlink:href="#d"/>
  <linearGradient id="a" xlink:href="#j"/>
  <linearGradient id="i" x1="-.90001" x2=".6" y1=".29688" y2=".71875" xlink:href="#j"/>
  <linearGradient id="y" x1=".34127" x2=".39683" y1=".02395" y2=".92216" xlink:href="#e"/>
  <linearGradient id="h" xlink:href="#g"/>
  <linearGradient id="x" x1=".35271" x2=".35659" y1=".03571" y2="1.4786" xlink:href="#b"/>
  <linearGradient id="w" x1=".46666" x2="1.0583" y1=".50712" y2=".47857" xlink:href="#c"/>
  <linearGradient id="v" x1=".79093" x2="-.6" y1=".45721" y2=".42857" xlink:href="#c"/>
  <linearGradient id="u" x1=".29286" x2=".9" y1=".22143" y2=".48572" xlink:href="#f"/>
  <linearGradient id="t" x1=".57143" x2="1.3896" y1=".36428" y2=".78571" xlink:href="#b"/>
  <linearGradient id="s" x1=".98682" x2=".51789" y1="-.39438" y2=".75352" xlink:href="#e"/>
  <linearGradient id="r" x1=".96072" x2="-.16667" y1=".49629" y2=".17778" xlink:href="#f"/>
  <linearGradient id="p" x1=".54175" x2=".58334" y1=".06248" y2=".92969" xlink:href="#b"/>
  <radialGradient id="n" cx="-.08333" cy=".17969" r="1.2148">
   <stop stop-color="#ffdf00" offset="0"/>
   <stop stop-color="#ff6f00" offset="1"/>
  </radialGradient>
  <radialGradient id="o" cx="-.02174" cy=".19531" r="1.0448" xlink:href="#d"/>
  <radialGradient id="m" cx="-.23077" cy=".10156" r="1.0842" xlink:href="#d"/>
  <radialGradient id="l" cx=".14803" cy=".60952" r="1.0142" xlink:href="#g"/>
  <radialGradient id="k" cx=".49664" cy=".22857" r=".52496" xlink:href="#c"/>
 </defs>
 <g transform="translate(-80,-234)">
  <path transform="matrix(2.1491 0 0 2.4509 133.77 -1040.2)" d="m241.79 698.61a115.06 34.345 0 1 0 -230.11 0 115.06 34.345 0 1 0 230.11 4.6e-4l-115.06-4.6e-4z" fill="url(#l)" fill-rule="evenodd"/>
  <path d="m337.157,282.539c6.127,6.918 13.266,15.257 19.395,22.173l32.353-15.91c5.882-7.609 13.321-12.289 19.205-19.896 .735-2.535-.308-5.281.427-8.446-54.446,25.687-52.424,1.497-71.38,22.079z" fill="url(#r)" fill-rule="evenodd"/>
  <path d="m260.57 360.85s72.287 46.507 72.287 45.701 59.006-45.163 59.006-45.163c-37.322-49.056 27.829-78.384 16.111-103.91-14.23 8.859-27.89 35.377-42.691 26.58-7.452 10.888-21.169 4.119-28.053-2.081-6.948 42.561-7.63 61.371-76.66 78.87z" fill="url(#u)" fill-rule="evenodd"/>
  <path d="m333.3 373.68c10.74 130.22 21.48 261.23 32.219 391.45l-49.94-14.498c-268.76 63.096-263.23-478.02 17.721-376.95z" fill="url(#m)" fill-rule="evenodd"/>
  <path d="m371.74 359.18c184.33-42.26 237.76 121.34 240.86 157.05 25.036 152.8-92.596 220.97-151.66 228.76-28.372-128.88-60.824-256.94-89.197-385.81z" fill="url(#z)" fill-rule="evenodd"/>
  <path d="m351.161,289.617c6.497-.758 12.994-.541 19.491-1.299-4.548,25.23-.324,72.225-4.872,97.455 14.293-1.299-47.753-17.542-47.753-17.867 20.465-18.841 33.784-70.817 33.134-78.289z" fill="url(#q)" fill-rule="evenodd"/>
  <path d="m318.8 368.84c0.806 0 12.725 4.94 12.725 4.94l40.437-14.605 38.663 11.276 103.1 158.68s-48.33 153.85-48.33 154.65c0 0.806-51.551 70.077-51.551 70.077h-20.137l-24.164 15.305-53.969-19.332c-166.47-163.24-68.735-372.4 3.223-380.99z" fill="url(#o)" fill-rule="evenodd"/>
  <path d="m330.83 372.79c-53.524 41.577-67.54 115.62-67.682 205.01 4.167-90.239 14.734-154.51 67.682-205.01z" fill="#fff4cc" fill-opacity=".18824" fill-rule="evenodd"/>
  <path d="m312.875,467.043c-6.353,46.122-12.919,81.277.961,157.07-11.94-41.405-22.715-86.211-.961-157.07z" fill="#ffa400" fill-rule="evenodd"/>
  <path d="m342.22 762.06c-53.525-39.292-70.497-112.53-70.639-197.01 4.167 85.282 17.691 149.28 70.639 197.01z" fill="url(#a)" fill-rule="evenodd"/>
  <path d="m351.68 367.14c168.34 78.314 75.297 310.43 40.822 386.32 8.323 4.297 23.09 5.371 35.844 4.029s24.7-5.503 36.65-11.678c70.345-54.237 96.202-198.2 80.815-255.44-16.137-59.185-106.65-156.09-194.13-123.22z" fill="url(#n)" fill-rule="evenodd"/>
  <path d="m369.04 767.27c43.155-39.67 67.424-144.91 80.146-200.3-8.155 68.646-28.078 148.76-61.104 189.31-5.942 5.493-16.446 11.239-19.042 10.993z" fill="url(#a)" fill-rule="evenodd"/>
  <path d="m357.03 360.44c80.493 27.169 106.02 77.806 106.23 136.22-6.265-58.968-26.601-103.22-106.23-136.22z" fill="url(#a)" fill-rule="evenodd"/>
  <path d="m330.45 753.47c-103.03-44.076-134.03-233.38-75.848-322.57-78.426 114.77-12.881 264.74 52.392 309.43 7.077 4.758 6.696 14.072 23.456 13.134z" fill="url(#i)" fill-rule="evenodd"/>
  <path d="m371.05 769.08c25.14-54.219 36.25-102.79 36.397-158-4.354 55.729-17.868 95.258-36.397 158z" fill="#f7de00" fill-opacity=".25157" fill-rule="evenodd"/>
  <path d="m368.48 769.08c25.14-54.219 39.122-102.08 39.269-157.28-4.354 55.729-20.74 94.54-39.269 157.28z" fill="url(#a)" fill-rule="evenodd"/>
  <path d="m400.76 755.14c80.557-120 69.357-188.37 74.221-200.89-0.37 89.083-29.154 136.63-69.329 198.67-4.22 6.269 1.461 1.338-4.892 2.219z" fill="url(#a)" fill-rule="evenodd"/>
  <path d="m238.35 578.06c10.127 9.347 39.254 31.085 49.381 40.433-0.81 15.578-1.451 22.402-2.92 37.981 0 0 26.443 4.586 32.227 5.654 1.318-7.605 3.409-20.984 4.236-30.898 13.047 1.168 110.45 37.084 161.85-47.428 28.821 128.33-208.17 212.36-244.78-5.742z" fill="url(#x)" fill-rule="evenodd"/>
  <path d="m358.03 359.43c80.493 27.169 106.02 77.806 106.23 136.22-6.265-58.968-26.601-103.22-106.23-136.22z" fill="#f7de00" fill-opacity=".25098" fill-rule="evenodd"/>
  <path d="m336.15 371.8c14.684 19.201 18.1 20.84 17.767 71.46-1.128-44.558-4.584-46.522-17.767-71.46z" fill="url(#a)" fill-rule="evenodd"/>
  <path d="m490.87 412.26c-16.607 51.29-39.515 91.844-90.893 124.83 7.805 1.011 32.625 5.112 40.432 6.125l16.036-16.581 4.086 18.599c7.8 1.009 25.284 2.978 33.094 3.985 12.254-47.788 11.965-95.459-2.755-136.96z" fill="url(#ab)" fill-rule="evenodd"/>
  <path d="m367.43 350.66c71.617 25.985 117.78 67.481 112.66 120.45-6.394-75.843-65.396-94.073-102.9-115.46-3.563 5.153-3.383-5.464-9.765-4.992z" fill="url(#h)" fill-rule="evenodd"/>
  <path d="m239.96 413.38c16.606 51.29 39.514 91.842 90.892 124.83-7.804 1.011-32.625 5.111-40.432 6.123l-23.107-19.227 5.419 20.84c-7.801 1.011-27.718 3.385-35.528 4.392-12.254-47.788-11.965-95.459 2.756-136.96z" fill="url(#aa)" fill-rule="evenodd"/>
  <path d="m329.05 372.13c-53.525 41.576-66.882 116.27-67.024 205.67 4.167-90.239 14.075-155.16 67.024-205.67z" fill="url(#a)" fill-rule="evenodd"/>
  <path d="m481.3 438.29c-13.913 37.663-32.763 61.163-73.032 90.623 6.539 0.739 22.994 4.392 29.537 5.137l15.777-16.809 4.829 18.695c6.543 0.745 18.655 2.187 25.202 2.926 10.269-35.091 10.027-70.097-2.313-100.57z" fill="url(#w)" fill-rule="evenodd"/>
  <path d="m248.304,437.106c14.751,35.911 33.491,63.613 68.123,90.776-5.997.72-22.5,1.641-28.499,2.363l-21.909-4.95 4.015,6.386c-5.993.72-16.993,2.119-22.992,2.834-9.416-33.989-10.048-67.893 1.262-97.409z" fill="url(#v)" fill-rule="evenodd"/>
  <path d="m382.98 436.1c16.723 66.116 15.72 128.85-3.012 201.39 14.06-20.719 26.607-52.847 27.109-89.725-2.51-43.924-12.551-78.927-24.097-111.66z" fill="#ff9000" fill-rule="evenodd"/>
  <path d="m419.58 759.62c101.26-68.258 91.871-136.88 98.314-145.98 0.128 53.823-38.044 110.47-91.84 144.36-5.966-3.575 1.938 0.973-6.474 1.612z" fill="url(#a)" fill-rule="evenodd"/>
  <path d="m489.61 413.42c-5.649 28.196-21.549 62.47-43.621 80.272-16.757 23.267-35.021 34.169-47.706 42.224" fill="none" stroke="#d94842" stroke-linejoin="bevel" stroke-opacity=".7044" stroke-width="2.0105"/>
  <path d="m240.95 415.73c-17.899 30.201-13.981 104.03-3.915 134.23" fill="none" stroke="#d94842" stroke-linecap="round" stroke-linejoin="round" stroke-opacity=".7044" stroke-width="2.0105"/>
  <path d="m265.64 524.1 2.503-8.216 22.205 14.682 0.264 11.445-24.972-17.911z" fill="#eb7f3d" fill-rule="evenodd"/>
  <path d="m236.13 550.31 36.532-5.847-5.262-18.376 22.896 16.262 38.787-4.85" fill="none" stroke="#d94842" stroke-opacity=".7044" stroke-width="2.0105"/>
  <path d="m495.24 549.09-35.314-3.818-3.693-18.977-13.941 16.863-43.379-6.572" fill="none" stroke="#d94842" stroke-opacity=".7044" stroke-width="2.0105"/>
  <path d="m409.7 758.74c91.452-101.59 78.738-159.48 84.258-170.08 0.107 62.71-33.098 115.67-78.709 168.2-2.054 1.383 1.662 1.135-5.549 1.88z" fill="url(#a)" fill-rule="evenodd"/>
  <path d="m417.93 759.62c102.16-95.185 89.192-172.39 95.445-183.85 0.123 67.788-33.477 131.92-89.161 181.82-5.79-4.502 1.884 1.225-6.284 2.031z" fill="url(#h)" fill-rule="evenodd"/>
  <path d="m248.16 585.44c10.127 8.228 29.441 21.219 39.568 29.451-0.81 13.711-0.561 19.717-2.03 33.431 0 0 25.553 4.036 31.337 4.976 1.318-6.694 3.409-18.469 4.236-27.197 13.047 1.028 108.78 38.517 161.67-38.723 14.251 125.97-207.09 152.19-234.78-1.938z" fill="url(#k)" fill-rule="evenodd"/>
  <path d="m237.75 579.28c34.004 198.85 259.93 150.18 245.24 5.35" fill="none" stroke="#d94842" stroke-linecap="round" stroke-opacity=".7044" stroke-width="2.1541"/>
  <path d="m438.49 753.72c102.03-33.062 139.17-263.38 88.74-310.77 65.358 73.821-12.026 279.31-58.225 300.83-7.421 4.758-12.936 10.885-30.515 9.945z" fill="url(#i)" fill-rule="evenodd"/>
  <path d="m370.35 351.79c83.017 18.757 132.74 53.892 154.71 97.686-21.706-53.105-79.282-84.133-149.14-95.537-5.133 4.76 1.664-1.297-5.572-2.149z" fill="url(#a)" fill-rule="evenodd"/>
  <path d="m274.44 361.09c-105.85-9.114-152.88 104.29-153.47 163.42 13.505-92.698 58.584-157.85 153.47-163.42z" fill="url(#a)" fill-rule="evenodd"/>
  <path d="m491.49 736.18c76.854-29.447 114.03-116.86 105.72-201.53-2.108 107.38-42.93 176.91-105.72 201.53z" fill="url(#a)" fill-rule="evenodd"/>
  <path d="m281.97 757.19c-76.599-1.628-133.7-55.152-143.96-106.82 30.586 67.587 80.738 104.81 143.96 106.82z" fill="url(#a)" fill-rule="evenodd"/>
  <path d="m469.84 741.69c34.735-5.311 70.749-26.184 82.814-86.332-15.605 58.206-49.096 77.478-82.814 86.332z" fill="url(#a)" fill-rule="evenodd"/>
  <path d="m401.88 353.14c149.96 20.057 199.33 120.43 172.6 230.16 24.079-125.74-44.426-209.48-172.6-230.16z" fill="#fff4cc" fill-opacity=".18824" fill-rule="evenodd"/>
  <path d="m433.11 353.58c76.599 1.627 155.17 64.641 155.32 123.06-4.354-58.968-92.089-121.04-155.32-123.06z" fill="url(#a)" fill-rule="evenodd"/>
  <path d="m301.96 364.24c-59.734 5.237-93.759 25.937-121.56 89.133 34.222-62.478 63.569-80.404 121.56-89.133z" fill="url(#a)" fill-rule="evenodd"/>
  <path d="m469.44 741.57c66.646-20.244 77.03-82.28 83.952-160.5-6.65 84.521-26.682 139.49-83.952 160.5z" fill="url(#a)" fill-rule="evenodd"/>
  <path d="m367.79 527.22-27.067 56.125 59.63-1.386-32.563-54.739z" fill="url(#t)" fill-rule="evenodd"/>
  <path d="m366.86 527.8-25.962 54.503 59.165-0.93" fill="none" stroke="#d94842" stroke-linecap="round" stroke-linejoin="round" stroke-opacity=".7044" stroke-width="2.3934"/>
  <path d="m363.45 537.96-16.319 34.136 37.267 0.197-20.948-34.333z" fill="#fff4cf" fill-rule="evenodd"/>
  <path d="m456.89 524.25-3.476-6.796-15.695 16.342 4.446 8.889 14.725-18.435z" fill="#ffa900" fill-rule="evenodd"/>
  <path d="m305.95 365.15c-111.84 29.363-124.74 151.5-124.9 230.12 0.354-97.014 30.542-205.19 124.9-230.12z" fill="#fff4cc" fill-opacity=".18868" fill-rule="evenodd"/>
  <path d="m291.66 363.15c-76.599 1.628-134.82 50.281-134.97 108.7 4.354-58.968 71.745-106.68 134.97-108.7z" fill="url(#a)" fill-rule="evenodd"/>
  <path d="m330.62 373.58c290.04-121.7 399.61 307.18 137.77 368.88" fill="none" stroke="url(#y)" stroke-linecap="round" stroke-linejoin="round" stroke-width="2.3584"/>
  <path d="m338.47 372.06c55.941 23.218 71.586 70.836 71.734 129.25-4.355-58.968-16.165-98.107-71.734-129.25z" fill="url(#a)" fill-rule="evenodd"/>
  <path d="m307.79 364.18c-118.9 29.033-128.52 150.35-128.67 228.97 0.353-97.014 31.526-204.7 128.67-228.97z" fill="url(#a)" fill-rule="evenodd"/>
  <path d="m290.52 761.3c-130.19-29.034-156.37-144.77-142.65-227.91-6.924 104.3 36.286 203.64 142.65 227.91z" fill="#ffbf00" fill-opacity=".28235" fill-rule="evenodd"/>
  <path d="m292.41 364.28c-76.599 1.628-133.7 51.784-134.97 108.7 3.603-58.218 71.745-106.68 134.97-108.7z" fill="#fff4cc" fill-opacity=".18824" fill-rule="evenodd"/>
  <path d="m399.75 353.67c149.96 20.056 199.33 120.43 172.6 230.16 24.08-125.74-44.426-209.48-172.6-230.16z" fill="url(#a)" fill-rule="evenodd"/>
  <path d="m302.49 365.31c-60.53 5.503-92.166 27.531-121.56 89.133 34.489-61.947 61.976-80.403 121.56-89.133z" fill="#fff4cc" fill-opacity=".18824" fill-rule="evenodd"/>
  <path d="m174.33 477.03c-16.093 61.772-18.586 102.95 4.207 176.98-16.905-45.923-32.072-99.872-4.207-176.98z" fill="url(#a)" fill-rule="evenodd"/>
  <path d="m175.71 477.03c-16.094 60.648-18.587 101.07 4.206 173.76-16.905-45.087-32.071-98.056-4.206-173.76z" fill="#ffbf00" fill-opacity=".43396" fill-rule="evenodd"/>
  <path d="m288.75 761.3c-130.18-29.034-154.96-145.48-140.88-228.97-10.106 107.13 34.517 204.7 140.88 228.97z" fill="url(#a)" fill-rule="evenodd"/>
  <path d="m318.28 754.9c-58.838-5.237-104.73-28.331-117.97-89.733 17.798 59.487 60.851 81.003 117.97 89.733z" fill="url(#a)" fill-rule="evenodd"/>
  <path d="m317.45 653.5 7.033-6.857 3.092-19.578-6.013-1.571-4.112 28.006z" fill="url(#p)" fill-rule="evenodd"/>
  <path d="m334.8 753.95c-112.9-19.961-124-87.413-126.37-165.8 2.627 87.526 29.363 145.08 126.37 165.8z" fill="url(#a)" fill-rule="evenodd"/>
  <path d="m488.99 737.68c76.853-29.447 114.41-118 106.1-202.67-2.108 107.38-43.311 178.06-106.1 202.67z" fill="#ffbf00" fill-opacity=".28302" fill-rule="evenodd"/>
  <path d="m318.31 368.49c-45.688 9.062-65.942 55.634-73.775 77.537 29.581-60.695 46.65-68.119 73.775-77.537z" fill="url(#a)" fill-rule="evenodd"/>
  <path d="m333.03 372.95c-3.481 11.948-5.29 69.195-5.307 151.54 0.476-83.126 2.638-132.89 5.307-151.54z" fill="url(#a)" fill-rule="evenodd"/>
  <path d="m333.03 372.95c-15.547 6.405-23.633 37.09-23.706 81.231 2.131-44.558 11.783-71.234 23.706-81.231z" fill="url(#a)" fill-rule="evenodd"/>
  <path d="m337.31 371.8c14.684 19.201 18.1 20.84 17.766 71.46-1.127-44.558-4.583-46.522-17.766-71.46z" fill="#fff4cc" fill-opacity=".18824" fill-rule="evenodd"/>
  <path d="m338.7 371.82c55.94 21.359 72.514 70.371 72.662 128.78-4.354-58.968-17.327-100.66-72.662-128.78z" fill="#fff4cc" fill-opacity=".18824" fill-rule="evenodd"/>
  <path d="m466.88 743.35c-22.877 18.364-53.174 16.543-73.216 10.682-8.13 5.105-15.495 9.541-23.625 14.645" fill="none" stroke="url(#s)" stroke-linecap="round" stroke-width="2.3934"/>
  <path d="m350.89 289.15c-1.754 28.497-18.132 62.676-33.039 79.336" fill="none" stroke="#006f00" stroke-width="2.3934"/>
  <path d="m411.63 758.74c91.452-101.59 77.661-159.84 83.181-170.43 0.107 62.71-32.021 116.03-77.632 168.55-2.341 1.288 1.662 1.135-5.549 1.88z" fill="#f7de00" fill-opacity=".33962" fill-rule="evenodd"/>
  <path d="m336.3 753.45c-112.9-19.961-124-87.413-126.37-165.8 2.627 87.526 29.363 145.08 126.37 165.8z" fill="#f7de00" fill-opacity=".25098" fill-rule="evenodd"/>
  <path d="m421.09 759.62c101.26-68.258 91.871-136.88 98.314-145.98 0.128 53.823-38.044 110.47-91.84 144.36-5.966-3.575 1.938 0.973-6.474 1.612z" fill="#f7de00" fill-opacity=".25098" fill-rule="evenodd"/>
  <path d="m372.06 285.43c-2.895 26.635-19.072 57.632-4.166 74.292" fill="none" stroke="#008000" stroke-width="2.3934"/>
  <path d="m408.44 258.47c7.5 21.112-47.659 57.632-19.434 97.356" fill="none" stroke="#65ad00" stroke-width="2.3934"/>
 </g>
</svg>
