<?xml version="1.0" encoding="UTF-8"?>
<svg version="1.1" viewBox="0 0 591.44 532.35" xmlns="http://www.w3.org/2000/svg">
 <defs>
  <filter id="a" color-interpolation-filters="sRGB">
   <feGaussianBlur stdDeviation="10.160714"/>
  </filter>
 </defs>
 <g transform="translate(-50.714 -10.219)">
  <rect x="50.714" y="10.219" width="591.43" height="532.35" rx="0" ry="26.385" fill="#0b1728"/>
  <path transform="matrix(1.1113 0 0 1.1087 -90.297 -2.9589)" d="m596.43 252.72a203.21 203.21 0 1 1 -406.43 0 203.21 203.21 0 1 1 406.43 0z" fill="#fff6d5" filter="url(#a)"/>
  <path transform="matrix(1.0987 0 0 1.0961 -85.335 .22213)" d="m596.43 252.72a203.21 203.21 0 1 1 -406.43 0 203.21 203.21 0 1 1 406.43 0z" fill="#fff6d5"/>
  <path d="m284.56 63.247c-93.075 26.85-161.15 112.46-161.15 213.97 0 123.02 99.947 222.77 223.25 222.77 9.1063 0 18.1-0.54702 26.921-1.604-5.0678-4.503-12.373-11.634-7.3658-11.34 7.2643 0.42632 23.053-6.8211 20.49-5.9684-2.5639 0.85265-21.782-3.4159-25.201-3.8422-3.4185-0.42633-13.252-7.6844-15.816-7.6844s-12.819 4.7002-17.947 4.7002-5.539 3.4212-3.4025 7.6844c2.1366 4.2632-25.206-0.44231-29.052-2.5739-3.8458-2.1316-28.229-11.527-28.229-11.527l25.649-16.189s-10.261-12.369-9.8335-15.779c0.42731-3.4105 42.309-13.631 48.719-13.205 6.4097 0.42632 4.6844 14.921 6.3936 17.905 1.7093 2.9842 9.8389 2.5739 10.693-0.41033 0.85464-2.9842 13.685-3.4319 13.685-3.4319s-8.5676 0.016-12.413-0.41032c-3.8458-0.42632-1.6879-4.6842 0.44868-5.1105 2.1366-0.42632 7.6863 2.105 11.105 1.6786 3.4185-0.42631 0.42197-9.8106-3.8512-9.8106-4.2731 0-13.653 4.7055-14.507 2.5739-0.85462-2.1316 11.105-10.669 11.105-10.669l-18.807-9.363 16.676 1.7159s-14.101-11.516-11.965-9.8106 44.419 13.205 44.419 13.205-11.521-5.5581-9.3849-5.5581c2.1366 0 12.392-3.3946 11.965-6.3788-0.42731-2.9842-16.265-2.1263-16.265-2.1263s10.288-4.2578 14.133-5.1105c3.8458-0.85262 4.2678-6.4001 8.1136-3.8422 3.8458 2.5579 1.7146-8.116 6.8423-8.5423 5.1278-0.42631-8.151-38.774-8.151-41.331 0-2.5579 5.9824 1.6786 5.9824 1.6786s3.8458 26.432 5.9824 35.811c2.1366 9.379 7.2803-6.8051 8.5623-12.347s6.3936-39.205 6.3936-39.205 0.0215 32.4 0.44869 38.795c0.42731 6.3948 5.9717-4.7108 10.245-3.4318 4.2731 1.279 3.4185 5.1105 5.9824-0.85798 2.5639-5.9684 9.4009-72.479 5.9824-78.448-3.4185-5.9684 12.408-12.331 17.536-12.758 5.1277-0.42633 7.259 10.626 8.1136 12.758s-4.2624 12.79-7.2536 11.937c-2.9912-0.85264-17.541 68.658-18.396 72.069-0.85461 3.4105 15.805 1.263 20.078-2.5739 4.2731-3.8369 16.676-64.795 16.676-64.795s-17.525-30.69-9.8335-31.968c5.443-0.90505 17.504 2.0357 25.163 4.8867-0.62725 0.33988-1.2339 0.67144-1.2339 0.67144s-14.539 75.005-19.667 82.253c-5.1277 7.2474-13.22 31.574-10.656 28.164 2.5639-3.4106 21.35-20.495 27.332-23.053 5.9824-2.5579 28.224-47.716 33.352-48.568 5.1278-0.85264 15.8-11.543 13.236-14.1-2.5639-2.5579-25.649-3.8369-22.658-11.937 1.5698-4.2508 1.5925-8.8334 0.41129-12.31 0.012-0.0119 0.026-0.0259 0.0373-0.0371 2.5639-2.5579-8.9896-10.226-11.553-11.079-2.5639-0.85264-24.341-5.5581-27.332-8.5423-2.9912-2.9842-9.0003-23.442-7.291-31.968 1.7092-8.5264 21.798-0.85796 21.798-0.85796s1.2766 5.5634-0.85996 9.4003c-2.1366 3.8369 0.42731 0.85264 5.9824 2.9842 4.3208 1.658 4.2843-1.7945 4.0381-3.4319 0.46068 1.5787 2.0671 5.0359 7.5154 7.274 7.2643 2.9842 7.2696-3.4318 12.825-3.4318 5.5551 0 3.8244-2.9896 8.5249-3.8422 4.7004-0.85265-1.6826 9.8-4.6737 17.047-2.9912 7.2474 1.2606 4.7001 5.5337 7.6844 4.2731 2.9842-2.1419 4.7001-6.8423 4.7001-4.7004 0-5.1117-2.5526-6.3937-5.1105-1.2819-2.5579-3.8512 0.82601-3.8512 4.6628 0 3.8369 12.814 5.9684 17.087 5.9684 4.2731 0 9.8496-10.653 9.4222-14.063-0.42732-3.4105-3.8565-7.6524-1.7199-5.5208 2.1366 2.1316 5.9717-6.4054 4.2624-7.6844-1.7092-1.279-2.5425-13.653-2.5425-13.653s3.3918 8.9686 7.6649 11.527c4.2731 2.5579 2.1312-15.779 2.1312-15.779s2.9965 7.2314 6.8423 9.363c3.8458 2.1316-2.5425-16.6-2.5425-16.6l-11.553-2.9842s-3.4132-4.2632-5.1224 0c-1.7092 4.2632-10.245 0.85797-10.245 0.85797l-5.1224-6.8264s-25.639-31.569-29.912-33.274c-4.2731-1.7053-14.539-5.5208-19.667-5.5208-5.1277 0-8.9842-8.1267-10.693-10.258-1.7093-2.1316-17.936-8.4997-22.21-7.6471-4.2731 0.85264-13.685 1.6786-13.685 1.6786s-5.9877-6.3948-9.8335-5.9684c-3.8458 0.42632-4.7004 5.1265-8.9736 4.7002-4.2731-0.42632-11.11-2.9949-17.947-1.7159-6.837 1.279-23.929 2.9842-23.929 2.9842l-5.5337-20.032s17.098 1.7159 18.807 1.7159c1.7093 0-5e-3 -10.232 2.1312-11.937 2.1366-1.7053-6.8584-6.4001-9.4222-6.8264s-5.961-5.5208-8.5249-5.5208c-2.5639 0 0.41129 4.2525 0.41129 4.2525l-9.3848-0.44764s3.8458 4.7108 5.9824 6.4161c2.1366 1.7053-1.282 5.1211-5.9824 6.8264-4.7004 1.7053-3.4399-4.7001-3.4399-4.7001s-3.3918-3.8422-7.6649-3.8422-1.7199 6.4161-1.7199 6.4161l-10.245 0.82066s-5.1598 8.974-5.1598 12.385c0 3.4105 19.229 0.8473 26.921 2.1262 7.6916 1.279-23.502 49.021-29.912 52.858-6.4097 3.8369 0.032 15.784 2.1686 19.621 2.1366 3.8369-8.5516 12.768-12.825 11.489-4.2731-1.2789-4.7218-6.3628-0.44869-9.7733 4.2731-3.4105 3.4185-17.506 2.9912-22.195-0.42732-4.6895-5.9663-14.9-9.3848-17.458s-6.8423-10.242-6.8423-13.653-2.1312-4.6842-5.1224-2.1263c-2.9912 2.5579-6.431 6.3788-6.431 6.3788s0.44867-2.9842 0.44867-5.9684c0-2.9842-3.8511-3.3946-3.8511-3.3946l-6.3937 9.363-8.151-3.3945s-0.8279-4.2738-4.6737-4.7001c-3.8458-0.42634-26.093 7.679-31.22 6.8264-5.1278-0.85263-2.5639-18.747 0-25.142 2.5639-6.3948 53.019-1.2896 61.992-1.7159 8.9736-0.42631 10.683-7.679 11.965-15.779 1.282-8.1-16.676-20.442-16.676-20.442s27.781 4.2365 30.772 7.6471c2.9912 3.4105-5e-3 7.6844-3.8512 16.637-3.8458 8.9527 13.247-1.6893 17.947-6.3788 4.7004-4.6895-3.4292-9.395-4.7111-11.527-1.282-2.1316-3.8405-13.631-8.1136-16.189-4.2731-2.5579-21.782 0.41566-28.192-1.7159-6.4097-2.1316 6.3936-8.5317 9.3848-12.795 2.8107-4.006-5.3459-4.2791-16.265-6.4161zm219.74 158.31c2.0355 0 3.6642 1.8371 3.6642 4.1033s-1.6287 4.1033-3.6642 4.1033c-2.0355 0-3.7016-1.8371-3.7016-4.1033s1.6661-4.1033 3.7016-4.1033zm0 1.2683c-1.4011 0-2.5425 1.2752-2.5425 2.835 0 1.5598 1.1414 2.7977 2.5425 2.7977 1.401 0 2.5051-1.2378 2.5051-2.7977 0-1.5599-1.1041-2.835-2.5051-2.835zm-88.614 194.94c-5.5903 0-10.133 3.8348-10.133 8.5796 0 4.7449 4.5423 8.5796 10.133 8.5796 5.5903 0 10.133-3.8348 10.133-8.5796 0-4.7449-4.5423-8.5796-10.133-8.5796zm-0.29912 2.089c4.0504 0 7.3284 2.5154 7.3284 5.5954 0 3.08-3.278 5.5581-7.3284 5.5581s-7.3284-2.4781-7.3284-5.5581c0-3.08 3.278-5.5954 7.3284-5.5954z" fill="#f4eac5"/>
  <path d="m311.91 88.75c-4.897-0.102-11.015 1.5984-12.375 1.9375 0 0-18.749 12.043-24.188 17.469-5.4388 5.4262-18.757 10.241-32.656 10.844s-7.8534 10.272-10.875 10.875c-3.0216 0.6029-7.8513-0.61365-19.938 4.8125-12.086 5.4261-20.53 29.575-25.969 30.781-5.4388 1.2058-19.978 21.681-24.812 28.312s-27.188 23.531-27.188 23.531c-13.03 57.927-9.3042 105.62 6.6562 145.88 0 0 22.361 9.6607 35.656 21.719 13.295 12.058 12.07 16.276 22.344 18.688 10.273 2.4116 22.394 16.274 32.062 22.906 9.669 6.6319 4.2099-4.2118-2.4375-10.844-6.6474-6.632 11.486-7.2317 24.781-8.4375 13.295-1.2058 8.4674-4.2393 13.906-9.0625 5.4388-4.8232 16.927 10.855 19.344 16.281 2.4172 5.4261-12.688 10.254-10.875 22.312 1.8129 12.058 28.987 8.4558 40.469 7.25 11.482-1.2058 8.4586-19.311 7.25-23.531s-18.75-4.8276-20.562-12.062c-1.8129-7.2348 10.302-15.681 9.0938-22.312-1.2086-6.6319 3.0093-10.831 7.8438-9.625 4.8345 1.2058 5.4489 18.1 1.2188 25.938-4.2302 7.8378 15.081 16.25 26.562 16.25 11.482 0 20.571-10.245 27.219-22.906 6.6474-12.661 18.125-18.69 16.312-24.719-1.8129-6.029-12.082-5.4268-18.125-10.25-6.0431-4.8232 1.2192-19.883-0.59375-23.5-1.8129-3.6174-6.0625-3.0237-6.0625 0.59375 0 3.6174-7.2179 4.2279-10.844 3.625-3.6259-0.60292-0.0308-7.2484-1.8438-11.469-1.8129-4.2203-9.6536 3.0237-20.531-0.59375-10.878-3.6174-0.59419-29.537 1.2188-37.375 1.8129-7.8377 13.29 1.7721 21.75 2.375 8.4604 0.60289 5.4071-14.449 1.7812-19.875-3.6259-5.4261-25.967-4.208-31.406-9.0312-5.4388-4.8232 3.0185-13.276 12.688-15.688s30.834-24.109 27.812-31.344c-3.0216-7.2348-20.559-6.6578-33.25-2.4375-12.691 4.2203-7.25 22.355-7.25 27.781s-24.77 4.1982-29-0.625c-4.2302-4.8232 4.8125-17.469 4.8125-17.469s-0.32308-0.98918-1.0625-1.8438c0.42058-0.9046 0.79563-1.8158 1.1562-2.75-2.3262 0.28726-4.4788 0.61391-5.8125 0.96875-4.5323 1.2058-17.52 1.2131-21.75-1.5-4.2302-2.7131 3.2912-9.6528 5.4062-12.969 2.1151-3.316-2.1142-4.8441-3.625-9.9688-1.5108-5.1247 4.2188-2.7115 4.2188-4.2188s0.36552-6.9044-3.5625-6-12.114 2.3892-16.344-5.75c-3.7091-7.1366 4.4465-13.326 15.062-20.844-6.9301-3.243-14.697-5.0938-22.844-5.0938-22.057 0-40.298 13.414-46.469 32.062-4.2689 0.14731-9.3081 1.366-13.719 2.9375-8.4604 3.0145-3.6259 14.449 0 19.875 3.6259 5.4261-2.4257 18.718-8.4688 33.188-6.0431 14.47-20.552-19.92-21.156-31.375-0.60431-11.455 6.0401-2.3902 12.688-9.625 6.6474-7.2348-3.6562-10.267-3.6562-13.281 0-3.0145 12.707-12.056 16.938-18.688s24.185-14.473 33.25-16.281c9.0646-1.8087 7.8521-16.28 16.312-20.5 8.4603-4.2203 16.32-1.2225 26.594-3.0312 10.273-1.8087 35.646-20.485 36.25-23.5 0.60431-3.0145 15.729-5.4343 16.938-13.875 0.52878-3.6928-2.5349-4.8582-6.3438-4.9375zm144.53 15.188c-5.9883 0-10.801 1.9879-13.875 5.1875 0.2577 2.738 0.52746 5.8397 0.125 6.375-0.43709 0.58144-2.2868 0.16326-3.4688-0.15625-0.036 0.16161-0.0949 0.33604-0.125 0.5 1.1647 1.0224 3.8573 3.4622 4.0312 4.1562 0.13592 0.54249-2.007 1.8618-3.625 2.8125 0.0653 0.23613 0.11165 0.48055 0.1875 0.71875 0.76989 2.4184 2.0367 4.7342 3.6562 6.875 2.6334-0.0822 6.0994 0.25805 8.3125 1.5 3.4185 1.9184 9.2099 7.2444 6.2188 7.0312-1.2116-0.0863-2.9033-0.0526-4.5 0 4.7406 2.6283 10.174 4.2188 15.531 4.2188 0.57539 0 1.1339-0.0582 1.6875-0.0937 1.6248 1.188 3.3125 2.5958 3.3125 3.1562 0 1.0658 5.9891-0.21875 6.8438-0.21875 0.85463 0 3 0.21087 3-1.2812 0-1.4921-0.25578-3.4431 0.8125-3.6562 1.0683-0.21315 1.0887-1.4599 0.875-2.3125-0.21367-0.85262 1.9324-3.2155 1.7188-4.2812-0.0721-0.36005-0.66527-0.92331-1.375-1.5 0.91251-2.7989 0.96195-6.0231-0.125-9.4375-3.445-10.822-16.532-19.594-29.219-19.594zm-105.59 21.219c-4.3039 0.18369-7.8882 2.3675-6.9062 6.5312 0.27288 1.157 0.15722 2.3583-0.1875 3.5312-4.8576 1.5644-9.1852 4.1121-12.719 7.4375-5.9229-0.73321-14.589-1.7688-16.719 0.78125-3.0216 3.6174-3.9071 18.414-0.28125 22.031 3.6259 3.6174 2.6875 6 2.6875 6s-4.2082-1.2001-4.8125 2.7188c-0.60431 3.9189 6.6554 11.127 10.281 12.031 3.6259 0.90436 3.9159 6.0609 6.9375 10.281 3.0216 4.2203 13.311 8.1524 18.75 6.3438 1.4639-0.48683 3.6391-1.9512 6.1562-3.7812 1.0503 0.0899 2.1158 0.15625 3.1875 0.15625 11.144 0 20.863-4.9722 26.938-12.688 1.7814 0.23989 3.2559 0.46348 4.6562 0.71875-1.6347 3.9521-2.4492 8.3087-2.2812 12.875 0.0658 1.7904 0.27036 3.5372 0.625 5.25-0.11064 0.0523-0.23488 0.097-0.34375 0.15625-3.3237 1.8087-2.0938 4.8438-2.0938 4.8438s-3.3539 1.1784-4.5625 1.7812c-0.78216 0.39017 5.3912 1.0013 9.9375 1.4062 3.1151 6.0769 8.0585 11.152 14.156 14.594 2.1378 4.1191 6.9767 11.078 10.062 14.156 3.3237 3.316 3.6657-0.29419 7.5938-1.5 3.928-1.2058 7.2078 1.5256 9.625-1.1875 2.4172-2.7131 3.0522-1.8422 2.75-6.0625-0.30216-4.2203 5.125-3 5.125-3s-2.7088 5.1177-0.59375 6.625c2.1151 1.5072 6.9375 5.125 6.9375 5.125s-5.1252-2.4078-4.2188 1.8125c0.90647 4.2203 15.093 9.0423 16.906 9.3438 1.8129 0.30145 19.957 24.417 25.094 24.719 5.1366 0.30146 18.114-1.4984 19.625-5.7188 1.5108-4.2203-4.2289-21.101-5.4375-24.719-1.2086-3.6174-0.90453-1.8438-8.1562-1.8438-7.2517 0-2.7056 4.5309-14.188-0.59375s-17.228-12.061-22.969-21.406c-0.95399-1.5529-1.6079-3.1776-2.0625-4.8125 2.9771-4.1782 4.9099-9.1008 5.5-14.406 1.577 0.44727 3.4872 0.74453 5.625 0.53125 6.0431-0.60291 14.209 4.2127 13-3.625-1.2086-7.8378-2.7485-25.281-9.0938-25.281-6.3453 0-12.062-6.9615-12.062-8.4688 0-1.5072 5.4373 0.0226 6.3438-4.5 0.90646-4.5218-2.7188-5.7188-2.7188-5.7188s2.6886 2.6783-1.8438 3.2812c-4.5323 0.60291-4.52-2.112-7.8438-0.90625-3.3237 1.2058-8.4267 0.94287-9.9375-1.4688-1.5108-2.4116-7.25-0.93592-7.25-5.1562 0-4.2203-1.833-10.531-3.3438-10.531-1.5108 0-2.7494 2.1086-5.4688 4.2188-2.7194 2.1102 0.95841 3.6326 0.65625 7.25-0.30215 3.6174-9.3834 12.634-17.844 12.031-8.4603-0.60291-2.4157-4.5076-6.3438-8.125-2.8651-2.6386-6.5588-4.1629-10.562-5.375-1.2151-2.3617-2.6722-4.5688-4.4062-6.5938 1.0018-0.92459 1.9688-1.5938 1.9688-1.5938s3.6259-5.4264 0-5.125c-1.8227 0.15154-4.6194 1.0354-6.9688 1.9062-4.9477-3.91-11.009-6.6025-17.594-7.5625-0.65812-3.1515-2.366-7.8802-6.2812-8.5312-1.0198-0.16956-2.038-0.22989-3.0312-0.1875zm151.28 11.219c-1.1372 0.16711 0.40625 2.1562 0.40625 2.1562s-2.3597-1.0836-1.7188 1.6875 2.3583 5.124 4.2812 7.4688c1.9229 2.3447 7.0421 5.1283 6.1875 4.0625-0.85462-1.0658-5.3488-3.4108-5.5625-5.9688-0.21365-2.5579 6-1.5 6-1.5-0.42731-2.1316-5.1389-6.6217-8.3438-7.6875-0.60091-0.19983-0.98757-0.25731-1.25-0.21875zm8.4688 20.25c-0.24913 9.5e-4 -0.4602 0.0589-0.59375 0.21875-1.0683 1.279 0.86923 1.9309 1.9375 4.0625 1.0683 2.1316 0.625 3.3918 0.625 4.0312 0 0.63949-2.9833-3.1796-4.9062-1.6875-1.1037 0.85642-1.4509 2.455-1.5312 3.6875-1.5727-0.4739-3.1679-0.81578-4.8125-1-0.92833-0.10398-1.8178-0.15207-2.7188-0.15625-13.514-0.0627-23.703 10.868-23.219 25.594 0.51664 15.708 12.959 29.805 27.812 31.469 14.853 1.6638 26.454-9.7611 25.938-25.469-0.28762-8.7447-4.2727-16.971-10.312-22.844 1.0164-0.71327 2.0353-1.376 2.5-1.4688 1.0683-0.21316-1.7028-5.1329-2.3438-6.625-0.64096-1.4921 3.229 2.3471 3.6562 1.2812 0.42732-1.0658-4.5-8.75-4.5-8.75-0.85463-0.63948-0.85393-0.63389-1.2812 0.21875-0.37391 0.74604-4.5061-2.5742-6.25-2.5625zm-236.16 133c3.8381 0 6.9375 2.7327 6.9375 6.0625 0 3.3297-3.0994 6-6.9375 6-3.8382 0-6.9688-2.6703-6.9688-6 0-3.3298 3.1306-6.0625 6.9688-6.0625z" fill="#e9ddaf"/>
  <path d="m608.62 113.44c-14.016-0.20087-25.259 12.172-26.469 11.5-3.2143-1.7857-15 0-15 0s-40.732-4.2857-50.375 5c-5.7524 5.5394 17.5 10 17.5 10s-40.714-1.8036-55 2.125c-7.4177 2.0399-15.361 6.6885 1.4375 15.375 17.651 9.1273 65.597 11.924 73.375 8.75-1.6511 1.4897-4.3755 4.041-6.25 5.875-4.6772 4.576 31.128 25.185 42.156 20 5.485-2.5787-1.9978-11.179 2.8438-9.2812 7.5514 2.9594 24.868-9.729 26.438-7.8438 4.6712 5.6112 14.715 6.8829 22.875 6.2188v-67.125c-14.301-0.31117-27.921-0.22135-32.156-0.53125-0.45759-0.0335-0.92288-0.056-1.375-0.0625zm-557.91 16.344v90.875c16.234 0.74711 39.581 1.9257 47.844 2.8438 12.857 1.4286 55.71-3.567 64.281-9.2812 5.9729-3.9819-14.281-11.438-14.281-11.438s34.299 11.438 42.156 11.438c7.8572 0 39.29-2.1339 45.719-3.5625s16.424 2.1295 24.281 2.8438c7.8571 0.71428 22.129-5.7054 17.844-8.5625-4.2857-2.8572-24.281-4.2812-24.281-4.2812s9.9911-2.1518 18.562-6.4375c8.5714-4.2857-12.129-9.2723-22.844-12.844-10.714-3.5714-54.299-7.1652-47.156-8.5938s2.1607-7.8616-2.125-10.719c-4.2857-2.8571-46.442-13.545-67.156-15.688-20.714-2.1429-21.429 2.8393-25 2.125-3.2825-0.65651-30.691-13.337-57.844-18.719z" fill="#535d6c"/>
  <path d="m527.09 128.06c-2.0593 0.78769-7.3906 1.0392-6.2812 4.5 3.2551 3.3056 8.6994 3.396 12.938 4.7812-0.68115 1.054 3.1027-0.96112 4.2188-1.125 2.5077-1.2737-1.5608-6.7891-4.4375-6.75-2.1694-0.28242-4.2694-1.2634-6.4375-1.4062zm-49.969 17.344c-2.0203 0.0508-5.0908 2.7667-2.9062 4.625 10.379 9.3222 25.1 10.723 38.281 12.969 12.926 1.465 26.103 2.9651 39.062 1.2188 2.8884-1.0215 4.5595-2.6846 6.5625-3.8438 0.78971-0.234 1.3127-0.31886-0.375-2.4688-4.2805-5.492-10.991-0.0754-16.531-1.0938-19.292-0.0479-38.926-1.8667-57.25-8.1875-2.5064-0.45257-4.3445-3.1183-6.8438-3.2188zm-276.75 18.844c-5.366 0.24788-6.3318 8.9563-0.59375 9.4062 1.2032-1.4256 2.3831-2.6381 3.4688-3 1.894-0.63135 1.4887-4.246-2.3438-6.4062-0.1822-0.0102-0.35815-8e-3 -0.53125 0zm415.66 0.0625c-4.9686 0.26254-9.8197 4.2926-14.469 5.875-5.6393 4.6946-12.687-0.91805-17.562 4.5312-2.7 3.6367 0.55975 9.9798-6.2188 6.6875-8.4071-2.224-16.027-6.6631-23.312-11.188-2.0824-0.094-4.7139 2.7025-3.0625 4.625 8.4727 7.5685 19.211 12.714 30.281 15.188 2.3187 0.14403 7.6804 1.4702 7.8438-2.2188-3.043-5.0655 1.2595-9.7016 6.4688-7.0625 8.3342-0.67053 14.923-6.8953 22.938-8.4375 6.3456 5.1368 14.947 7.3672 23.219 6.4062v-8.4688c-7.3997 1.2015-15.652 0.65884-21.125-4.7188-1.6816-0.98226-3.3438-1.3063-5-1.2188zm-350.28 23.438c-5.1209 2.4633-10.938 3.2155-16.094 5.4062-3.0858 2.0867-1.6946 7.4581 2 7.8125 2.7857-1.0509 2.1784 0.93638 5.875-2.2188 4.8878-2.0176 11.65-2.3913 15.281-6.375 0.22818-2.9084-5.0463-4.0547-7.0625-4.625zm-119 6.6875c-4.675-0.32862-6.1514 6.9122-1.7188 8.4375 3.1765-0.69009 1.2349-1.9687 3.8438-1.0625 13.815 4.179 27.489 9.4366 41.844 11.375 16.618-0.45683 33.247-1.8728 49.719-3.9062 10.606 0.41092 21.48 6.1091 31.812 1 1.9392-0.11495 6.8236-3.277 3.6562-5.1875-6.4503-4.442-12.84 1.6294-19.531-0.28125-9.7464-2.2692-19.702-3.8837-29.594-1.5312-13.346 1.1142-26.769 2.778-40.156 2.3438-13.588-2.5241-26.638-7.4344-39.875-11.188zm9.5 13.156c-17.817 5.6361-36.735 7.2731-55.344 7.75-16.696-1.2197-33.456-2.317-50.188-2.9375v7.1875c17.995 0.73653 35.977 1.9657 53.938 3.125 18.515-0.68225 37.347-2.3307 55.031-8.125 2.3469 1e-3 3.7969-3.1035 1.4062-4.25-1.4888-0.94906-2.9665-2.6874-4.8438-2.75z" fill="#4a5360"/>
 </g>
 <g transform="translate(-50.714 -10.219)">
  <path d="m376.25 308.43c13.36-0.95905 24.517-6.3224 36.607-9.8214 0 0-4.6429-28.571-5.3571-28.393-0.71429 0.17857-28.036 5.5357-28.036 5.5357z"/>
  <path d="m386.79 288.61-7.3214 4.2857-2.8572 14.024s7.0816-0.71428 10.238-2.3558c-0.14974-5.351-0.60284-10.01-0.0597-15.954z" fill="#1a1a1a"/>
  <path d="m133.59 246.51s-7.8287 1.389-9.5964 3.1567c-1.7678 1.7678-1.5152 3.1567-4.2932 4.4194s-3.0305 1.5152-3.283 2.5254c-0.25254 1.0102 0.88388 7.7024 3.9143 8.7126 3.0305 1.0102 2.1466 1.1364 2.9042 3.1567 0.75761 2.0203-1.5152 10.733-2.7779 13.006-1.2627 2.2728-1.5152 2.6516-1.5152 2.6516l2.1466 0.12626-2.1466 1.894 2.0203 0.50508-1.7678 3.5355 1.5152 0.25254s-0.50508 7.5761 0.25254 9.5964c0.75761 2.0203-2.0203 25.001-4.2932 27.527-2.2728 2.5254-3.283 5.3033-3.283 5.3033l41.921 10.859 1.0102-3.5355s10.421-1.0908 17.425-7.1973c4.9245-4.2932 9.849-8.3338 8.8388-23.865-1.1819-18.172 1.1364-23.107 4.5457-24.496 6.9536-2.8329 5.9346-7.1973 1.389-7.955-5.531-0.92182-8.8388 3.0305-9.9752 5.177-2.8774 5.435-0.8238 17.982 0.25254 28.789 1.0618 10.661-8.5348 24.641-23.739 21.466 0 0-2.5254-19.698-4.7982-25.254s-12.753-34.471-12.501-38.26c0.25254-3.7881 6.566-5.4296 7.0711-8.46 0.50507-3.0305-3.1567-11.869-3.1567-11.869l-3.7881-9.0914-0.75761-4.0406h-1.2627c-0.40663 4.2393 0.28524 9.891-2.2728 11.364z"/>
  <path d="m62.629 316.47c-4.906 3.2812-3.5355 17.173-1.0102 17.678 2.5254 0.50508 27.274 4.0406 34.345 5.0508 7.0711 1.0102 150.51 34.345 154.05 34.85 3.5355 0.50508 177.28 32.83 177.28 32.83l43.437 10.102 0.50507-9.0914s-224.25-44.952-227.79-45.457c-3.5355-0.50507-109.6-26.264-109.6-26.264s-46.467-11.112-48.992-12.122c-2.5254-1.0102-18.815-9.8554-22.223-7.5761z" fill="#6c5d53"/>
  <path d="m258.57 352.72s-9.2857 2.1825-9.7295 3.3316c-0.80612 2.0872-2.7705 7.2041-2.7705 8.4541s-0.84055 4.486 1.6071 5.1786c2.4602 0.69615 6.25 2.6786 6.25 2.6786 0.70017-1.4881 0.736-5.0794-2.9094-6.0408l1.1544-2.949 0.49208 0.84137 8.5708 1.6951 10.728-8.7252-8-6.7143z" fill="#d38d5f"/>
  <path d="m261.16 373.79c-0.625 1.9643-0.625 4.9107-0.26785 5.5357 0.80357 1.6071 3.2143 1.4286 4.0179 0.71428 0.80357-0.71428 0.70133-4.6727 0.26785-5.5357-0.80357-1.5998-4.0179-1.2839-4.0179-0.71429z" fill="#784421"/>
  <path d="m263.49 355.93c-3.2861 5.7-6.784 7.0424-11.362 5.7143 0.18107 1.5603-0.1973 1.2681 0.52679 2.5714l7.7188 1.5 7.9375-10.688c-1.877-1.3866-2.6815 1.0696-4.8214 0.90179z" fill="#784421"/>
  <path d="m290.84 348.32-0.68718-16.941-26.25-6.3125s-5.0414 6.5684-4.0312 9.0938 5.0414 0.48223 4.0312 2.25-7.5912 7.8395-7.8438 11.375c-0.25254 3.5355 3.0312 5.5625 3.0312 5.5625z"/>
  <path d="m59.406 324.62c-0.26896 4.5564 0.7746 9.2424 2.2188 9.5312 2.5254 0.50508 27.273 4.0211 34.344 5.0312 7.0711 1.0102 150.5 34.339 154.03 34.844 3.5355 0.50508 177.28 32.844 177.28 32.844l43.438 10.094 0.53125-9.0938s-0.15603-0.0312-0.15625-0.0312l-0.375 6.2812-43.438-10.094s-173.75-32.339-177.28-32.844c-3.5355-0.50508-146.96-33.834-154.03-34.844-7.0711-1.0102-31.818-4.5574-34.344-5.0625-1.1391-0.22782-2.0196-3.1836-2.2188-6.6562z" fill="#483e37"/>
  <path d="m255.98 373.61c-0.625 1.9643-0.625 4.9107-0.26785 5.5357 0.80357 1.6071 3.2143 1.4286 4.0179 0.71428 0.80357-0.71428 0.70133-4.6727 0.26785-5.5357-0.80357-1.5998-4.0179-1.2839-4.0179-0.71429z" fill="#d38d5f"/>
  <path d="m371.23 433.52c0.12627-1.389 4.672-4.0406 4.672-4.0406 2.1466 1.2627 9.0914 9.2176 9.5964 10.48l-2.2728 2.9042c2.1466 1.5152 5.8084 6.3134 8.8388 7.1973 3.0305 0.88388 15.531 13.258 16.162 14.773 0.63134 1.5152-2.9042 3.4093-2.9042 3.4093z" fill="#333"/>
  <path d="m299.38 408.14-20.203 22.35s36.365 14.268 38.133 15.657 6.8185 2.6516 8.7126 3.0305c1.894 0.3788 50.255 14.016 50.255 14.016s7.8287 0.12626 10.607 1.5152 13.511 4.1669 15.152 4.7982c1.1844 0.45554 5.6137-0.80723 3.9143-3.5355-2.0855-3.3482-13.178-12.801-15.152-14.016-3.283-2.0203-6.6923-5.8084-9.5965-10.985-1.1341-2.0216-5.7761-6.2047-8.5863-8.2075-1.7481-1.2458-6.9448 4.2931-8.0812 3.4093s-5.177-2.9042-6.0609-1.6415c-0.88388 1.2627-4.9245 3.0305-6.6922 2.3991-3.4072-1.2169-15.558-11.823-18.814-13.763-12.501-7.4499-33.588-15.026-33.588-15.026z"/>
  <path d="m269.46 339.07c-2.6516 0.75762-4.9245 1.7678-3.4093 3.1567 1.5152 1.389 1.1364 2.6516 1.1364 2.6516s-6.4397-1.0102-6.8185 1.389c-0.37881 2.3991 2.5254 5.0508 3.7881 4.9245s-3.5355 1.6415-2.6516 4.1669 5.3033 4.0406 7.0711 3.9143c1.7678-0.12627 14.521-3.7881 14.521-3.7881l-7.5761-14.9z" fill="#280b0b"/>
  <path d="m285.91 351.81s-8.4185 0.50491-19.656 5c-8.0357 3.2143-9.1161 12.17-7.6875 15.562s4.6157 7.6026 5.5312 8.375c1.1246 0.9488 6.0578 6.9904 8.4375 9.9375-3.7687 5.8189-9.7233 15.584-9.375 18.719 0.50507 4.5457 4.0346 11.36 6.8125 12.875s12.875 8.3438 12.875 8.3438l19.188-19.969-21.094-19.5 23.688-6.9375-4.4375-5.9375 15.344-2.5312-29.625-23.938z" fill="#d38d5f"/>
  <path d="m280.25 369.44c0.63089 1.3503 1.2756 2.4308 3.4688 2.8438l-3.6562 0.6875c2.8688 0.10015 11.858 3.0389 15.531 6.5 1.8507 1.7438 3.1562 6.9375 3.1562 6.9375l2.0312-0.53125c-6.4888 9.4403-14.515 20.631-16.688 21.5-3.7881 1.5152-10.1 4.5389-3.2812 3.7812 6.8185-0.75761 16.688 6.5625 16.688 6.5625l40.156-23.719-28.031-21.219s-1.0217 1.4963-1.4375 2.125c-0.57204-0.90305-1.4871-1.4213-3-0.75-4.5316 2.0107-21.854-3.5281-24.938-4.7188zm-0.1875 3.5312c-0.46348-0.0162-0.78062 0.0459-0.875 0.1875l0.875-0.1875zm21.469 5.75 4.0938 0.0312c-0.51901 0.77253-1.1307 1.6624-1.7188 2.5312l-2.375-2.5625z" fill="#784421"/>
  <path d="m297.49 409.53s-16.594 18.34-18.109 18.718l-2.7256-1.4719c-1.0102 2.0203-0.63135 4.7242 1.0102 4.8505s8.7126 2.9042 10.354 3.7881c1.6415 0.88388 15.152 4.9245 15.152 4.9245 1.25-0.625-8.3338-3.9143-8.3338-3.9143s3.1567 0.50507 2.1466-1.894-7.8287-1.7678-7.8287-1.7678l-3.283-1.0102s3.6954 0.21403 3.32-1.0931c-0.77293-2.6913-4.2039-1.4323-4.2039-1.4323l16.162-15.531z" fill="#333"/>
  <path d="m361.89 436.93c0.75761-1.7678 5.5558-1.2627 5.5558-1.2627 1.8368 4.5878 1.9409 9.1756 2.5254 13.763l-3.283 0.37881c-0.35169-0.45255-0.13708 9.004 4.4194 14.521 3.3666 4.0762 9.3439 20.077 9.3439 20.077s-1.6415 1.0102-2.6516 0.88389-15.784-28.158-15.784-28.158z" fill="#333"/>
  <path d="m364.67 148.02s39.648-26.769 43.437-28.032 13.385-7.5761 15.657-6.8185c2.2728 0.75762 17.425 9.0914 20.203 9.3439 2.7779 0.25253 7.0711 0 6.3135 1.5152-0.75762 1.5152-7.3236 5.0508-10.859 5.0508-3.5355 0-6.566-1.5152-6.566-1.5152s2.2728 2.0203-0.25254 2.5254c-1.4799 0.29598-1.4043 0.76284-2.7972 1.0109-0.29331 0.0523-1.3648-0.45368-1.3081 0.15691 0.0784 0.84401-0.67352 2.0763-0.94549 2.6202-1.0102 2.0203-7.3236 23.486-7.5761 25.506-0.25254 2.0203 2.2728 19.445 2.2728 19.445z" fill="#1a1a1a"/>
  <path d="m389.92 145.5c4.2932-8.8388 32.758-28.856 33.588-29.673 2.6053-2.5654-2.0118-1.5826-2.1466-1.5152-17.4 7.576-29.986 17.827-44.699 26.895z"/>
  <path d="m343.43 186.43c-26.789-10.354-68.097-48.651-58.258-63.781 10.588-16.281 46.196-3.1317 83.258 13.066 14.064 6.1468 81.429 47.5 87.5 55.714 6.0714 8.2143 21.786 27.143 25.714 32.143s4.4633 12.48 1.7857 15c-3.0357 2.8571-12.679-1e-5 -12.679-1e-5z" fill="#333"/>
  <path d="m341.43 188.43c-26.789-10.354-67.339-49.156-57.5-64.286 10.588-16.281 45.438-2.6266 82.5 13.571 14.064 6.1468 81.429 47.5 87.5 55.714 6.0714 8.2143 21.786 27.143 25.714 32.143s4.8973 13.041 1.7857 15c-9.6428 6.0714-45.357 5.7143-45.357 5.7143z"/>
  <path d="m363.21 172.01c-15.837 0.82544-29.393 4.2753-37.321 14.464-3.3695 4.3303-2.9226 5.2932-1.7857 8.2143 0 0 3.9921-2.4359 6.4286-3.0357 1.8576-0.45735 6.25-0.35715 6.25-0.35715-6.9445 4.2373-7.1482 9.7738-5.1786 12.321 1.642-2.9668 4.3857-4.6941 9.8214-3.3928 1.4294 2.5015-13.975 21.348-16.964 23.571-4.2988 3.1966-8.5714-5-8.5714-5s-1.4132 7.2088 0.53572 10.536c2.1427 3.6578 10.357 6.9643 11.25 8.75 0.89286 1.7857-0.53571 7.3214-4.1071 6.7857-3.5714-0.53571-8.3929-7.1429-8.3929-7.1429s-3.1326 3.9437-2.3214 5.8929c3.2374 7.7787 21.25 9.2857 23.214 10 1.9643 0.71429 84.107 28.571 84.107 28.571 6.5256 2.8907 12.03 9.187 19.821 7.8571 0 0-8.0067-7.2055-8.5714-9.4643-0.53571-2.1429-0.17857-4.2857 3.2143-3.5714 3.3928 0.71429 8.5714 1.25 10.357 0.53571 1.7857-0.71428 4.8214 0.35715 4.1071 1.9643-0.71428 1.6071-5.3741 6.3425-4.6428 6.4286 3.0357 0.35714 13.905-1.9508 14.464-6.0714 0.76949-5.6735-5.1786-11.071-6.0714-12.857-0.89285-1.7857 3.4147-0.99897 5-1.7857 6.6985-3.3243 11.964-15.536 11.607-19.286-0.35715-3.75-5.1786-11.786-7.8572-12.143 0 0 2.1429 4.8214 0.35715 6.6072-3.6618 3.6618-11.964 0-13.571-4.6429-1.6072-4.6429-6.7857-10-10.357-11.071-3.5714-1.0714-12.5-8.2143-11.964-11.429 0.53571-3.2143 2.8571-5 5.8929-3.3929 3.0357 1.6072 4.4643 7.8572 4.4643 7.8572s6.5291-5.4704 4.6429-7.8572c-9.3981-11.892-26.071-25-32.857-27.321-6.7857-2.3214-45-10.536-45-10.536z" fill="#800000"/>
  <path d="m354.31 180.53c-9.4439 0.13038-17.764 6.4559-21.094 10.312 0 0 10.603-1.519 12.75 0.375 1.5758 1.3904 2.8003 3.2597 0.90625 5.4062-1.2559 1.4234-4.1921 0.89229-6.8438 2.2812l7.2188 3.1562s1.5981 4.8585 3.125 9.9062c-0.82425 4.1154-1.8933 7.8046-3.2188 8.7812-3.3929 2.5-9.2946 5.183-11.438 1.9688-2.1428-3.2143-1.433 3.567 1.7812 4.2812 3.2143 0.71429 9.6295-0.36607 11.594-3.9375 0.64145-1.1663 1.5198-4.0872 2.375-7.4375 0.95222 3.3431 1.673 6.2637 1.5938 7.1562-0.62856 7.0755-6.0148 13.101-13.656 14-7.1912 0.84602-16.245-4.5973-19.469-4.8125 7.2639 4.7945 15.232 8.1875 22.375 8.1875 0.19255 0.7702-2.7886 6.1269-7.5 8.0312-4.9228 1.9898-11.641 0.49736-14.719 0.125 3.5098 2.585 18.938 4.7188 18.938 4.7188s94.836 15.823 98.75 14.812c3.9143-1.0102 5.6875-2.7812 5.6875-2.7812s-14.792-2.2571-16.812-4.6562c-2.0203-2.3991-19.681-27.642-20.312-32.188-0.63135-4.5457 2.5228-11.023 4.4062-12.906 2.9042-2.9042 4.7981-9.8252 9.3438-8.5625 4.1042 1.1401 6.5625 1.5 6.5625 1.5-5.8614-8.03-13.559-12.084-21.406-15.812l-49.031-11.844c-0.63858-0.0487-1.2766-0.0712-1.9062-0.0625z" fill="#500"/>
  <path d="m462.03 275.59c-1.2766 0.058-2.1643 0.38485-2.2188 0.875-14.207 16.33-18.473 37.163-18.781 43.08-4.1152 1.1189-19.056-11.886-21.031-16.924l-9.125 5.4375c1.6454 3.3332 3.3891 5.583 4.8438 5.9062 1.6072 0.35714 3.5625 0.71875 3.5625 0.71875s-0.70535 2.3214 1.4375 5c2.1429 2.6786 7.1518 8.0312 8.9375 8.0312h3.1875s1.4464 5.183 2.875 5.7188c1.4286 0.53571 5.5357 2.1473 6.25 1.9688 0.46306-0.11576 0.71477-0.35723 0.875-0.53125 4.4048 5.8822 6.625 7.3125 6.625 7.3125l10.812-7.7723 11.156-18.29s1.8432-32.746 0-36.094c-1.8842-3.422-6.5978-4.565-9.4062-4.4375z" fill="#2b0000"/>
  <path d="m459.81 276.47-21.594 18.75l-16.781 0.53125-11.094 11.25c0.39175 1.188 1.0726 1.2102 2.25 1.5312 0 0 1.1696 3.6384 2.6875 3.9062 1.5178 0.26785 2.9724-0.82037 4.0351-2.2027 1.0869-1.4139 0.40244 4.6402 0.40244 4.6402s0.0223 2.8482 2.3438 5.4375c2.3214 2.5893 6.4258 5.8974 7.4713 4.6735 1.6441-1.9247 2.7575-6.7747 2.9599-5.4143 0.39672 2.667 2.0555 11.803 3.0376 12.428 0.98215 0.625 5.5316 3.7224 5.9777 2.6071 0.71428-1.7857-0.39562 0.069 0.57086-3.9501 0.76968-3.2007 3.2833 6.6551 7.2952 11.437l0.0312-0.0312c0.0173 0.0436 0.0449 0.0814 0.0625 0.125 0 0 3.6139 4.1827 6.0625 3.75 11.537-2.0388 15.906-29.812 15.906-29.812-2.9737-1.7815-6.0899-1.8447-9.25-1.25-1.1898 3.0593-3.9917 10.036-4.0625 8.125-0.0693-1.8698 0.66604-5.7142 1-7.375-3.5253 1.0281-7.0796 2.4712-10.562 3-0.27433 6.5371-1.6469 13.057-0.28125 19.594-0.8544-0.99834-1.6478-2.142-2.2812-3.6562-1.4015-3.3499 0.20781-25.666 3.4688-37.031 2.1584-7.5229 10.344-21.062 10.344-21.062z" fill="#500"/>
  <path d="m433.73 127.82c-0.12627-2.6516-0.12627-6.9448-1.894-7.1973-1.7678-0.25254-3.6618-0.63135-3.5355 0.25254 0.12627 0.88388 2.2728 1.389 2.7779 2.6516 0.50507 1.2627 1.5739 4.2625 2.1989 4.6196z" fill="#1a1a1a"/>
  <path d="m429.76 131.1c-1.6415-1.894-0.82076-4.9245-2.8411-5.8084-2.0203-0.88388-4.9245-1.389-4.9245 0.25254s1.2627 2.0203 2.7779 2.6516c1.5152 0.63135 3.7434 1.3813 3.4909 2.7703 0.37198 0.67645 0.84288 0.0978 1.4967 0.13393z" fill="#1a1a1a"/>
  <path d="m431.07 295.58s-2.3237 6.0268-4.5982 8.1696c-3.1923 3.0075-6.4459 5.441-11.83 5.7589-1.7225 0.10169-5.0446-1.1607-5.0446-1.1607l22.156-16.891 3.4466 0.1515 4.6206 2.2528-1.6964 1.6295z"/>
  <path d="m397.5 278.43s4.8432 27.438 10.536 29.464c5.678 2.0214 10.587 1.1639 16.964-4.2857 3.3146-2.8323 4.0185-13.473 9.5982-11.83 3.6384 1.0714 5.2009 2.1205 5.2009 2.1205l0.45521-0.45331s-4.54-2.694-6.6829-2.694c-2.1429 0-4.8214 1.9643-4.8214 1.9643 0.0108-0.4545-0.86226-0.24616-1.7857 0 0 0 1.1055-1.7127 1.0714-2.8571-0.20123-6.755-10-17.5-10-17.5z" fill="#1a1a1a"/>
  <path d="m399.28 286.97c1.911 8.2396 5.1522 19.657 8.75 20.938 5.678 2.0214 10.591 1.1683 16.969-4.2812 3.3146-2.8323 4.014-13.487 9.5938-11.844 3.6384 1.0714 5.2188 2.125 5.2188 2.125l0.4375-0.46875s-4.5446-2.6875-6.6875-2.6875c-2.6729 0.17292-4.6829 1.7566-6.1562 3.625l-2.4713 6.1964s-5.2787 2.8617-7.7787 3.3974c-2.5 0.53572-4.7384-0.42665-6.7027-3.2838-1.9643-2.8571-3.9166-11.028-5.8809-11.742-1.298-0.47199-4.0312-1.5492-5.2914-1.9738z" fill="#333"/>
  <path d="m397.75 279.75c0.14963 0.81104 0.36264 1.8966 0.875 4.2812 0.99144 1.0741 5.128 5.542 8.5 6.8438 1.584 0.45755 19.058 0.25483 20.906-1.2188-0.0749-1.2849-0.515-2.6981-1.125-4.1562l-29.156-5.75zm29.125 12.625s-5.5491 1.3304-6.5312 2.3125c-0.98214 0.98214-4.625 3.0179-3.375 4.625 1.25 1.6072 4.375 2.8705 5 1.5312s0.0895-4.2096 1.25-5.8125c0.8292-1.1453 3.6562-2.125 3.6562-2.125v-0.53125zm1.875 0.34375s-2.1056 0.93476-2.8438 1.7812c-1.0506 1.2049-1.7902 1.9643-1.9688 4.375-0.17857 2.4107 1.0056 2.0474 1.6875 1.0625 0.80357-1.1607 3.125-7.2188 3.125-7.2188z"/>
  <path d="m305.36 315.84c0.35714 0.0893 24.018 11.429 24.018 11.429l4.1071-0.35714 0.26786-23.75-4.7321-2.5-23.482 11.429z"/>
  <path d="m324.64 300.58 10.357 3.3928s-5.8929 17.054-6.25 18.571c-0.35714 1.5178-3.2143 12.054-3.2143 12.054l-24.018 2.5-13.571-5s16.964-10.893 19.018-12.857c2.0536-1.9643 17.679-18.661 17.679-18.661z" fill="#500"/>
  <path d="m335.88 279.09s-9.2638 18.18-13.625 21.594c-1.8288 1.4316-5.2728 3.5239-8.4062 5.4688-4.3255 2.244-7.9571 4.2225-8.9375 5.0312-0.71905 0.59322-1.1473 2.5268-0.96875 3.6875 0.17857 1.1607 3.6562 4 3.6562 4l1.4375-1.6875s-3.2342-1.148-3.4062-2.5c-0.625-4.9107 10.422 1.0458 14.375-0.4375 4.1604-1.5611 10.906-10.375 10.906-10.375s-3.0788 6.8284-3.6875 8.5c-0.95566 2.6245 0.0125 4.5927 1.25 6.9375 1.2375 2.3448 4.6429 4.75 3.75 6.625-0.53571 1.0714-4.3438-0.5625-4.3438-0.5625l-0.5625 1.9688c2.8253 1.4693 5.4495 0.77433 8.0312-0.34375l0.0312-0.8125 11.375-42.938-10.875-4.1562z" fill="#1a1a1a"/>
  <path d="m334.03 294.41c-0.49718 0-1.1193 0.27554-1.6875 0.84375-0.75762 0.75761-12.511 14.402-14.531 14.781-1.4192 0.2661-5.4934-0.7624-7.8438-1.4062-1.9879 1.3011-3.2105 2.2239-2.5 2.25 3.4947 0.12829 9.5343 2.7936 12.5 1.9375 3.0329-0.87552 15.281-15.281 15.281-15.281s-7.353 14.826-6.8125 17.406c0.84691 4.0432 6.9375 11.25 6.9375 11.25l1.5-5.7188c-0.8622-0.95747-1.8567-2.103-2.5-2.875-1.2627-1.5152 0.24746-4.1436 0.5-5.4062 0.25254-1.2627 3.6562-14.025 3.6562-14.656 0-0.63134-3.5262-2.7787-4.0312-3.0312-0.12627-0.0631-0.30302-0.0937-0.46875-0.0937z" fill="#333"/>
  <path d="m271.96 393.79c2.8872-4.7143 21.773-11.135 35.089-13.661 0.75978-0.10854 21.939 34.719 23.125 42.411 0.72558 4.7061 9.8214 9.1072 10.893 10.179 1.0714 1.0714 1.4286 4.1072 1.4286 4.1072 2.1429-0.71429 5.3571-2.6786 6.4286 0.17857 4.801-1.8796 7.9311-2.8944 14.107-1.25 1.6071 2.6786 2.6786 13.75 2.6786 15.179s-0.17858 6.6071 1.7857 10.536c1.9643 3.9286 7.6716 12.51 10.714 22.679 0.54035 1.8059-5.1913 4.6608-7.3214 1.9643-3.4758-4.4-23.393-21.25-23.393-21.25-3.8757-0.97017-4.6984-5.6909-9.1071-8.0357-4.6429-2.3214-17.7-13.694-19.286-17.5-1.7857-4.2857-33.115-31.064-47.143-45.536z"/>
  <path d="m299.47 378.25c-0.86218 0.0197-1.4978 0.0622-1.7188 0.0937-0.88388 0.12627-2.0312 1-2.0312 1 1.389 3.4093 9.8572 10.493 11.625 14.281 1.7678 3.7881 14.4 27.39 15.031 29.031 0.63135 1.6415 2.3961 2.3948 3.4062 3.5312 1.0102 1.1364 11.739 13.887 12.875 15.781 0.73382 1.223 1.5368 2.5217 2.375 3.9062-7.5861-2.916-13.699-9.0752-17.969-13.812-14.992-16.83-34.337-44.21-34.312-46.844 0.0258-2.8233-4.2991-0.72321-5.9062-0.1875-1.6072 0.53572-10.42 2.7902-12.562 2.9688-2.1428 0.17857-1.1698 3.231-0.0937 4.1875 1.6071 1.4286 13.191 13.658 18.375 17.938 0.52391 0.43244 0.0179-0.88393-0.875-2.3125-0.89285-1.4286-1.6205-3.2946-3.4062-5.4375 6.9351 2.9335 1.6082-5.5427-2.8438-5.625-1.3533-1.3379 0.9582-0.54096 2.0938-0.78125 1.0187-0.21557 0.83777-1.512 0.5-2.1875-0.71428-1.4286-7.4375-2.5-7.4375-2.5s9.4715-3.92 10.375-1.9688c1.021 2.2048 36.522 48.303 40 50 3.6946 1.8029 9.2679 7.1696 12.125 8.0625 2.8572 0.89286 9.8259 4.6295 9.4688 7.8438-0.35714 3.2143-4.2812 7.5-4.2812 7.5l2.6875 3.9375s4.9252-8.3988 4.375-12c2.9172-0.70315 14.157-2.0806 14.909 2.3737-0.0553-0.5276-0.22911-4.366-0.46621-7.0925-1.6104 3.2778-13.69 2.1922-17.849 0.46875-0.48393-0.41988-0.99233-0.83915-1.5312-1.25-0.75319-2.3303-1.4375-12.875-1.4375-12.875l-2.9062 0.53125s1.889 6.1837 0.5 6.5625c-1.389 0.3788-9.4599-10.986-10.344-12.375s-7.5912-7.4586-7.8438-8.4688c-0.25254-1.0102-17.051-33.082-18.188-34.219s-4.9113-4.9324-4.4062-5.4375c0.50508-0.50507 7.7188-0.625 7.7188-0.625s-1.1461-2.8999-2.1562-3.5312c-0.75761-0.47351-5.2885-0.52794-7.875-0.46875z" fill="#333"/>
  <path d="m270.91 338.62c-2.6786 0-5.0268 3.0268-1.8125 3.5625 3.2143 0.53571 3.9375 1.5938 3.9375 1.5938-2.0485 0.74491-4.625 3.0402-3.375 4.4688 2.0997 3.1 3.457 3.0608 6.7188 1.4375-1.4732 1.9467-1.1826 3.7097 0.78125 3.2188 2.1428-0.53571 2.3125-0.53125 2.3125-0.53125s-5.5357 2.6696-3.75 4.8125c1.6604 1.9924 7.6312 1.3719 8.75 0.125-0.19064 0.82794-0.2841 2.1875 0.875 2.1875h2.875s-6.1423 3.2945-4.6562 5.375c3.5714 5 10.375 1.9375 10.375 1.9375s-2.1562 1.6339-0.90625 3.0625 5.1875-0.71875 5.1875-0.71875-2.3348 1.4196-0.90625 3.5625 4.6562 0.71875 4.6562 0.71875-2.1518 2.6607-1.4375 3.375c0.71429 0.71429 3.5625 0.1875 3.5625 0.1875s-2.8527 4.817 0.54018 6.4241c3.3928 1.6071 5.7098-2.8616 5.7098-2.8616s-1.7812 3.5848-0.53125 4.6562 3.9375-1.5938 3.9375-1.5938-1.7768 2.6696 1.4375 4.8125c3.2143 2.1429 5.5312-0.53125 5.5312-0.53125l0.71875 2.5 1.5938 0.53125s-3.2098 1.4152-1.7812 2.8438 4.8125 1.25 4.8125 1.25-4.1116 3.9375-0.71875 5.1875 7.8839 1.5982 8.0625-0.1875c0.126-1.26-0.63354-3.3438-1.0938-4.5 0.20926 0.26681 0.55803 0.5491 1.0938 0.75 1.4286 0.53571 3.375 0.1875 3.375 0.1875s-2.3125 3.0491-1.0625 3.4062c1.25 0.35714 3.0312-0.90625 3.0312-0.90625s-1.6027 5.1875 0.71875 6.4375c2.3214 1.25 4.2723 2.2991 5.3438 1.4062s2.3438-4.625 2.3438-4.625 0.6875 2.8527 1.9375 3.0312 2.875-2.3125 2.875-2.3125 0.52679 2.1339 2.3125 2.3125c1.7857 0.17857 2.3125-2.6875 2.3125-2.6875s-0.52232 4.8304 2.1562 5.1875 3.2188-6.9688 3.2188-6.9688 2.8438 4.6562 5.3438 5.9062 7.692 2.4955 8.4062 0.53125c0.71429-1.9643-0.71875-6.4375-0.71875-6.4375s1.25 1.9688 2.5 1.9688 0.53125-2.1562 0.53125-2.1562 1.5982 1.8125 3.5625 1.8125c1.9643 0 3.4062-2.3438 3.4062-2.3438s-0.52679 3.0402 1.4375 3.2188c1.9643 0.17857 3.5625-3.375 3.5625-3.375s-0.71429 5.5223 2.5 5.3438c3.2143-0.17857 6.2455-9e-3 6.7812-1.4375 0.5023-1.3394-1.2669-4.9193-1.5-5.375 0.16182 0.20944 0.61577 0.5625 1.875 0.5625 1.7857 0 1.7812-1.9688 1.7812-1.9688s0.71428 1.0848 2.5 0.90625c1.7857-0.17857 2.6562-3.75 2.6562-3.75s0.7476 6.0316 2.875 5.7188c6.0714-0.89287 1.5938-6.9688 1.5938-6.9688s1.9643 3.192 3.75 2.6562c1.7857-0.53571 0.53125-2.5 0.53125-2.5l4.4688-1.25s0.37947 3.75 2.3438 3.75c1.9643 0 5.5223-2.125 5.3438-3.375-0.13393-0.9375-1.3577-1.6903-1.9688-2 0.66964 0.25949 2.1473 0.70095 3.2188 0.0312 1.4286-0.89286 2.1562-3.4062 2.1562-3.4062s3.5491 2.6786 5.1562 1.25c1.6071-1.4286-0.15625-5-0.15625-5s3.0089 2.5045 4.4375 0.71875c1.4286-1.7857 0.375-4.2812 0.375-4.2812s3.2009 0.55357 4.0938-0.875c0.39503-0.63206-0.42988-1.9621-1.4375-3.25l-159.62-33.375s-10.165-3.375-12.844-3.375z" fill="#500"/>
  <path d="m281.19 348.66c1.5974 1.2623 18.735 16.925 20.594 17.094 1.9643 0.17858 4.2857 1.8036 6.25-0.875 1.9643-2.6786 5.1562-3.5938 5.1562-3.5938s10.918 6.5197 14.844 10.906c3.9257 4.3865-2.6786 5.7366-5 7.3438-1.5116 1.0465-1.7812 3.5312 1.9688 6.0312 1.6612 1.1075 15.426 13.488 24.812 13.062 4.5116-0.20428 12.152 0.53125 12.688-0.71875 0.53571-1.25 0.1875-8.5625 0.1875-8.5625 7.1322-2.1267 16.908-1.1335 23.75-0.375 0 0 1.62 3.9779 2.125 7.3125 0.39926 2.6365 5.0179 0.37946 6.625-0.15625 1.6071-0.53572 21.415-7.1652 21.594-8.5938s-1.942-3.0402-1.4062-5.7188c0.53572-2.6786 8.7188-3.9062 8.7188-3.9062l6.8125 6.0625s18.626-11.396 24.281-20c1.1145-1.6957-0.53125-2.0312-0.53125-2.0312l-165.56-17.094 0.90625-11.5c-2.583 3.0606-2.9523 6.4942-6.8336 9.0938-2.5616 1.7156-4.245 4.4282-1.9789 6.2188z"/>
  <path d="m337.64 326.06s-10.859 5.3033-14.647 6.0609c-3.7881 0.75762-12.122 2.7779-17.93 1.5152-5.8084-1.2627-26.011-7.8287-29.294-7.8287-3.283 0-11.869-0.75762-11.869-0.75762s19.193 6.0609 21.466 7.8287c2.2728 1.7678 5.5558 6.566 1.0102 9.3439-4.5457 2.7779-6.0609 4.7982-4.0406 5.8084 2.0203 1.0102 20.456 18.688 20.456 16.415 0-2.2728-5.0508-9.849-1.5152-10.859 3.5355-1.0102 12.374 6.0609 15.405 8.0812 3.0305 2.0203 15.405 10.354 14.9 13.637-0.50508 3.283-8.3338 4.0406-7.3236 6.566 1.0102 2.5254 18.94 14.395 22.476 14.395 3.5355 0 13.637 1.7678 13.132-1.0102-0.50507-2.7779-5.5558-7.0711-1.5152-8.0812 4.0406-1.0102 29.8-0.75762 32.325 1.0102 2.5254 1.7678 2.5254 5.5558 1.0102 6.8185s25.254-6.8185 23.486-8.5863c-1.7678-1.7678-2.5254-5.0508-1.2627-6.3134s18.435-7.5762 19.698-6.0609-2.2728 8.5863-1.2627 8.0812c1.0102-0.50507 22.223-17.173 22.476-19.698s-11.364-1.7678-17.425-2.0203c-6.0609-0.25253-33.84-10.102-33.84-10.102l-23.486-21.466z" fill="#1a1a1a"/>
  <path d="m263.91 325.06s19.196 6.0447 21.469 7.8125c2.2728 1.7678 5.5457 6.5658 1 9.3438-4.5457 2.7779-6.0516 4.8023-4.0312 5.8125 2.0203 1.0102 20.438 18.679 20.438 16.406 0-1.8038-3.173-6.9174-2.7188-9.4688-0.24036-0.23173-0.44502-0.43157-0.59375-0.46875-0.71429-0.17857-1.625 1.625-1.625 1.625l-0.34375-1.25-2.3125-0.90625s3.3884-1.0625 1.7812-2.3125c-1.6072-1.25-4.125-0.375-4.125-0.375s3.0402-1.7768 0.71875-3.5625c-1.3451-1.0347-2.3586-0.26305-3 0.5625-0.0209-0.36098-0.34375-0.70535-1.2812-0.90625-2.5-0.53571-2.8438-0.37946-2.8438-1.0938 0-0.71428 1.25-0.875 1.25-0.875s2.3036-1.7857 0.875-2.5c-1.4286-0.71429 3.4062-1.7812 3.4062-1.7812s3.0268-2.5 2.3125-3.75c-0.71428-1.25-1.25 0-1.25 0s0.19643-1.8036-0.875-2.875-2.6875-0.1875-2.6875-0.1875 1.5893-1.5938-0.375-2.8438c-1.9643-1.25-3.5625-0.1875-3.5625-0.1875s0.52679-1.7768-1.4375-2.3125c-1.9643-0.53571-3.75 0.53125-3.75 0.53125s1.8036-1.6027 0.375-1.7812c-1.4286-0.17857-5-0.53125-5-0.53125s1.0625-0.0179 2.3125-0.375c0.40271-0.11506 0.12461-0.42687-0.53125-0.78125-0.74517-0.14727-1.3521-0.21875-1.7188-0.21875-3.283 0-11.875-0.75-11.875-0.75zm40.125 26.906c-1.1637 0.0795-1.7359 0.71481-2 1.5312 3.9056-0.0168 11.822 6.2669 14.656 8.1562 3.0305 2.0203 15.411 10.373 14.906 13.656-0.50508 3.283-8.3539 4.0371-7.3438 6.5625 1.0102 2.5254 18.964 14.406 22.5 14.406 3.5355 0 13.63 1.7467 13.125-1.0312-0.20296-1.1163-1.1514-2.4557-1.9375-3.75-0.21511 0.97162-0.46549 1.6628-0.78125 1.0312-0.71429-1.4286-2.5268-0.51786-1.8125 1.625 0.71429 2.1428-1.9554-0.375-2.3125-1.625-0.35714-1.25-1.0625-0.88839-2.3125-0.53125s-1.9821-0.16518-1.625-1.5938c0.35715-1.4286-1.7589-1.433-3.1875-0.71875s0.71428 1.9688 0 1.9688c-0.71429 0-3.4062-0.71875-3.4062-0.71875s0.36607-2.1339-1.0625-2.3125-0.20089-1.9643 1.4062-2.5c1.6072-0.53571 0-2.1607-2.5-2.875-2.5-0.71429-1.4062 1.9688-1.4062 1.9688s-0.73214 0.36607-0.375-1.0625c0.35714-1.4286-1.0491-1.2678-3.9062-0.375-1.2088 0.37775-1.6171 0.59302-1.6875 0.71875l-1.7188-0.71875s3.2232-1.7723 1.4375-2.8438c-1.7857-1.0714-3.0312-0.71875-3.0312-0.71875l2.5-2.3125s0.88839-3.5938 1.7812-3.5938 1.0714-2.317 0-3.0312c-1.0714-0.71428-1.2679-1.4062-0.375-1.4062s1.4375-2.5134 0.1875-3.4062c-1.25-0.89285-4.0938 1.25-4.0938 1.25s0.17857-1.6205 1.25-2.1562c1.0714-0.53572-1.442-2.6786-3.4062-2.5s-1.4375 1.9688-1.4375 1.9688-0.52679-1.2322 0.1875-2.125c0.71429-0.89286-2.1339-1.9598-3.5625-1.7812s-2.6875-0.375-2.6875-0.375-0.1875-1.058 1.0625-1.5938c1.25-0.53572-1.2455-2.3438-3.0312-2.3438-1.7857 0-3.375 1.25-3.375 1.25s1.0491-2.308 0.15625-2.8438c-0.72696-0.43617-2.8313-0.6597-3.2188-0.71875 0.71429 0 2.3214-1.0536 0-2.125-1.7028-0.78588-3.0119 0.41269-3.5938 1.125 0.1151-0.46561-0.28571-1.1652-3.1875-1.5-0.29018-0.0335-0.5419-0.0476-0.78125-0.0312zm145.22 8.875c-0.62626 0.12525-0.5 2.2188-0.5 2.2188l1.5938 1.25s-1.4152 1.7991-1.5938 0.90625c-0.17857-0.89285-1.4152-1.0759-2.8438 0.53125s-0.19642 0.8884 0.875 1.7812c1.0714 0.89286-1.5938 2.3438-1.5938 2.3438s-0.5491-1.25-2.1562-2.5c-1.6071-1.25-0.52679-4e-3 -1.0625 3.0312-0.53572 3.0357-0.0179-9e-3 0.875-0.1875 0.89286-0.17857-0.875 2.3125-0.875 2.3125s-1.433-1.5938-3.2188-0.34375-1.058 0.71875-0.34375 0.71875c0.71428 0 1.4062 0.875 1.4062 0.875s-2.6652 1.0893-2.8438 0.375c-0.17858-0.71429-1.6116-0.71875-1.9688 0.53125s-0.90625 3.5625-0.90625 3.5625l0.71875-3.375-4.2812-4.3125s-2.4911-1.5848-2.3125-0.15625c0.17857 1.4286 1.058 1.6116 0.34375 1.9688-0.71429 0.35714-1.9688-0.5625-1.9688-0.5625s0.0134-1.0446-1.5938-1.9375c-1.6071-0.89286-1.0804-0.0134-1.4375 1.5938s0.73214 0.72768 1.625 0.90625-1.9688 1.7812-1.9688 1.7812-1.9732 0.16072-1.4375-1.625c0.53572-1.7857-2.5089 0.53125-2.6875 1.7812s-1.0625 1.9688-1.0625 1.9688-0.33929-0.53125-0.875-1.7812c-0.53572-1.25-1.7946 0.0134-2.6875 0.90625-0.66965 0.66964-0.54632 1.7249-0.4375 2.2188-0.14123-0.36206-0.5276-1.0896-1.5312-2.2188-1.4286-1.6072-2.8438 1.6071-2.8438 2.5 0 0.89285 1.4062 2.5 1.4062 2.5s-0.17857 3.0268-2.5 3.5625c-2.3214 0.53572 9e-3 0.1875 1.4375 1.4375 1.4286 1.25-0.1875 1.7812-0.1875 1.7812s-1.7812 0.36607-1.7812-1.0625-1.7946-1.2634-2.6875-0.90625c-0.89285 0.35715 0.20535 2.1473 0.5625 3.2188 0.35714 1.0714-2.1562 1.25-2.1562 1.25s9e-3 -0.375 0.1875-1.625c0.17857-1.25-2.1429-0.51786-3.75 0.375s1.4062 1.9688 1.4062 1.9688l-3.375 0.34375s1.4241-1.0759 0.53125-3.2188c-0.89286-2.1428-3.0223 2.8795-4.0938 4.8438-1.0714 1.9643-0.71875-3.0625-0.71875-3.0625s-0.91072-3.3884-1.625-4.2812c-0.71429-0.89285-1.9598 0.53125-3.0312 0.53125-1.0714 0 0.90625-3.2098 0.90625-4.2812s-3.2232-0.34375-3.9375 0.90625 1.5938 1.25 1.5938 1.25l-1.7812 2.3125s-0.71875-2.3259-1.9688-1.9688c-1.25 0.35715-1.7812 1.7812-1.7812 1.7812s-1.433-0.33483-0.71875-1.4062c0.71429-1.0714 0.73214-1.4375-2.125-2.6875-2.8572-1.25-1.067 0.36607-1.7812 2.6875-0.71428 2.3214-2.3438 0.34375-2.3438 0.34375s-0.16518-0.90179-0.34375-2.6875c-0.17857-1.7857-3.5848 0.1875-4.6562 1.4375s-1.4062 0.90625-1.4062 0.90625-0.90179-0.17411-1.4375-1.7812-2.5089 0.15178-2.6875 1.9375c-0.17857 1.7857-2.5 1.625-2.5 1.625s0.36607-1.2589 0.1875-2.6875-2.8527-1.2321-4.2812 0.375c-1.4286 1.6071-1.625 4.2812-1.625 4.2812l0.34375 0.15625c0.20827-0.38861 0.64864-0.6856 1.4062-0.875 4.0406-1.0102 29.818-0.76777 32.344 1 2.5254 1.7678 2.5152 5.5498 1 6.8125s25.268-6.826 23.5-8.5938c-1.7678-1.7678-2.5439-5.0498-1.2812-6.3125s18.425-7.5777 19.688-6.0625-2.2602 8.5988-1.25 8.0938c1.0102-0.50507 22.216-17.162 22.469-19.688 0.0742-0.74163-0.87447-1.1846-2.4062-1.4688-0.15084 0.20808-0.25 0.38986-0.25 0.5 0 0.71429-0.1875 2.1562-0.1875 2.1562s-0.90625-1.25-2.1562-2.5c-0.23438-0.23438-0.41798-0.31015-0.5625-0.28125z" fill="#333"/>
  <path d="m343.95 256.52-8.078 22.566c-0.94514 2.5866-3.8772 7.5719-5.3585 9.8882l-5.2481-10.583-0.44194-3.9775 4.1037-4.1669 2.4622-3.0304-0.61602-9.7145 3.8697-1.9744z"/>
  <path d="m371 255.94c-2.2372 0.42016-13.134 5.6004-15.812 6.4375-2.0618 0.6443-5.0986 2.6334-6.6562 3.7188-0.23253-0.92178-1.2324-5.5837-1.4464-6.6116l-2.315-4.3213-6.0244 4.8794 0.69197 11.429-1.4062 9.6562 5.5312 1.125-6.0625 1.7188 1.5938 42.312 22.688 4.125 11.375-40.219c1.029 0.14272 1.8567 0.24766 2.0938 0.21875 3.6607-0.44644 6.5223-1.7188 6.9688-2.3438 0.44643-0.62501 1.0893 0.0268 2.25-0.0625 1.1607-0.0893 1.4196-2.0804 2.3125-1.8125 0.89286 0.26786 3.2553-3.8652 4.0268-5.5268 1.1607-2.5 0.34375-8.9152-0.72768-10.254-1.0714-1.3393-17.665-14.201-18.737-14.469-0.067-0.0167-0.19461-0.028-0.34375 0z" fill="#2b0000"/>
  <path d="m340.54 321.29c6.2365 1.1092 12.633 1.4171 19.107 1.3393v2.8571c-6.678-0.46285-13.342-0.96113-19.554-2.5893z" fill="#500"/>
  <path d="m341.7 290.4c6.2365 1.1092 12.633 1.4171 19.107 1.3393v2.8571c-6.678-0.46285-13.342-0.96113-19.554-2.5893z" fill="#500"/>
  <path d="m372.76 258.57c-6.2785 0.30833-22.912 6.6775-22.042 8.8062 0.49197 1.2033-0.72321 2.8393 1.0625 2.125 1.7857-0.71429 4.817-2.1384 5.5312-1.7812 0.71428 0.35714 0.70982 1.7768-0.71875 2.3125-1.4286 0.53572-6.4286 0.0223-6.25 1.0938 0.17857 1.0714 2.1696 2.8572 4.3125 2.5 2.1428-0.35714 4.6295 0.87054 5.3438 1.4062 0.71429 0.53572 0.72768 3.2366-1.5938 2.3438-2.3214-0.89285-6.9425-3.8763-6.764-2.6263 0.17858 1.25 0.53572 5 2.5 5 1.9643 0 5.3131 1.4298 4.4202 2.5013-0.4536 0.54432-3.959-0.0496-3.4653 1.7139 0.19087 0.68176 3.9441 1.5462 4.5591 2.1611 1.25 1.25 15.888 4.8125 19.281 3.5625s2.6522-2.7568 3.2188-3.75c1.5178-2.6606 1.3913 1.0141 1.9375 1.0625 1.139 0.10099 1.4352-4.7854 2.5-5 1.7908-0.36094-0.7195 4.5352 1.625 2.6875 2.4971-1.9679 0.54026-6.5944 0.28918-7.6359-1.2627-5.2383-12.323-15.187-10.651-13.498 3.7413 3.7788-4.1986-5.0285-5.0955-4.9844zm-32.042-0.0197c-3.6607 2.3214-4.9935 3.8318-6.5312 6.1384-1.7857 2.6786-3.308 4.9821-1.9688 10.25 0.51548 2.0275 3.3125 5.375 3.3125 5.375l-0.625 0.8125s0.71875 2.2143 1.9688 2.125c1.25-0.0893 0.34375 1.3438 0.34375 1.3438l1.0938 0.34375 15.438-0.6875-1.9688-2.1562c-1.5124-0.70383-4.3428-1.9756-5.25-1.7812-1.25 0.26786-4.7411-1.067-5.8125-1.1562-1.0714-0.0893-0.70536-0.72322 0.1875-1.4375 0.44642-0.35715 0.80134-0.56919 1.2812-0.625 0.47991-0.0558 1.058 0.058 1.9062 0.28125 1.6129 0.42445 7.9139 4.0332 8.5625 4.4062l0.125-0.0312-2.875-3.3125s-10.714-5.3504-10.656-5.75c0.0431-0.29971 1.6906-0.6491 3.1562-0.71875 0.48854-0.0232 0.96429-0.0134 1.3438 0.0312 1.5179 0.17857 6.6875 5.1875 6.6875 5.1875s-2.4382-7.0305-3.8442-12.612c-0.88875-3.4601-2.5931-5.235-5.8745-6.0262z" fill="#500"/>
  <path d="m373.25 255.24-3.6585 0.88707 10.547 8.0437s12.682 11.133 14.828 13.785c2.1466 2.6516 8.0616 9.9356 12.501 10.985 6.51 1.5395 20.355 0.69262 22.628-1.3277 2.2728-2.0203 3.0051-3.0917 1.6161-4.1019-1.389-1.0102-4.3581-4.9958-5.4296-6.6923l-40.476-21.258z" fill="#1a1a1a"/>
  <path d="m373.75 255.58c2.8666-0.25219 11.583 3.3362 17.179 7.8566 4.3423 3.7145 14.36 11.701 17.173 13.385 6.996 4.1874 18.183 0 18.183 0-0.98214-1.875-2.3991-6.9448-2.3991-6.9448l-39.901-19.445-8.0812 1.1364z"/>
  <path d="m397.69 235.22 1.2812 11.344-5.2188-9.0312s-4.2723 6.625-5.3438 7.25-5.6477 2.4997-8.6875 3.6875c-5.8278 2.2772-8.5625 7.2812-8.5625 7.2812l2.5938-0.1875s2.0491-3.4643 3.6562-2.75c1.6072 0.71429 14.839 9.9107 16.625 11.25 1.7857 1.3393 12.729 10.714 15.438 11.438 4.2594 1.137 6.3125 0.15625 6.3125 0.15625v-0.0312c4.4424-0.16881 15.219-5.2578 16.531-5.75 1.4286-0.53571-7.4866-6.442-10.344-8.4062-2.8572-1.9643-13.054-18.576-15.375-20.719s-8.9062-5.5312-8.9062-5.5312z" fill="#1a1a1a"/>
  <path d="m376.62 224.69c-6.202 0.24524-20.389 0.75439-29.844 6.2188 0.13281-0.0661 0.26968-0.12987 0.40625-0.1875 0.61888-0.26117 1.3015-0.42575 2.1562-0.15625l4.0938 2.6562 2 9.7812 4.5625-0.3125 2.125-4.5312 8.3125-3.375 8.5938 6.5312 8.125-0.5625c0.40687-0.73746 1.0263-1.3124 1.7188-1.7812l-1.6562 6.5938s1.0333-0.33728 1.6562-0.75c2.7679-0.98214 6.8474 2.2988 9.31 5.3431 0.82612 1.0213 3.0055 0.21697 3.8039-3.313 1.4819-6.5512-0.4394-8.8356-1.6039-10.233-0.63134-0.75761-5.9475-5.1096-5.9475-5.1096-1.7335-1.8358-3.5968-3.6218-5.25-5.0312-2.6549-1.2012-7.1357-1.8498-12.562-1.7812z"/>
  <path d="m340.17 251.44s-7.477 2.8796-9.1347 4.6094c-2.9042 3.0304 0.67467 8.0175-0.90369 11.742-1.3688 3.2303-7.1342 4.3563-6.7554 7.8918 0.37881 3.5355 5.97 15.311 5.97 15.311l1.6267-2.6653c-0.8662-1.1478-5.387-9.0469-5.387-12.582 0-3.5355 5.9346-5.3033 6.4397-8.3338 0.50507-3.0305-2.3949-8.3399 0.11094-10.063 3.0305-2.0834 9.0165-1.1478 11.649 0.19629 1.2736 0.6502 2.8803 2.8172 3.651 3.7409 0.69197-1.292 1.4458-8.0798 0.94067-7.9535s-8.2075-1.894-8.2075-1.894z" fill="#1a1a1a"/>
  <path d="m332.94 254.81c4.276-2.6448 9.384-2.2738 11.66-0.85796 2.225 1.3845 3.1287 2.9826 3.1287 2.9826 0.0802-2.2946-0.71587-4.8281-1.1581-7.1392l-10.139-1.6951-3.2459 3.1624z"/>
  <path d="m379.03 241.31 6.7812 5.1562 2.2188-1.3438s0.0179-8.1563 6-5.6562c2.1372 0.89313 2.7792 6.3607 3.8125 9.6875 0.24231 0.78019 1.5 1.0938 1.5 1.0938l-0.6875-12.969c-1.1488-2.0679-2.5976-3.9848-4.2188-5.7812l1.8438 3.5312s-0.89639 0.6204-2 1.25-2.9883 1.1214-3.683 1.3214c-1.6869 0.4856-2.5826 1.7531-3.442 3.1473z" fill="#1a1a1a"/>
  <path d="m346.78 230.91c-0.23177 0.13395-0.49289 0.23499-0.71875 0.375-0.89286 1.4286-3.2812 8.2366-3.2812 8.5938 0 0.35715 1.691 0.42595 1.8438-0.0937 0.83605-2.8445 0.82957-6.7115 3.1562-6.625 4.3066 0.16008 1.5278 11.281 0.96875 12.781 1.9643 0.62501 9.9062-0.375 9.9062-0.375l1.3438-2.875-4.5625 0.3125-2-9.7812-4.0938-2.6562c-0.85473-0.2695-1.5374-0.10492-2.1562 0.15625-0.13657 0.0576-0.27344 0.12141-0.40625 0.1875z" fill="#1a1a1a"/>
  <path d="m389.16 226.47c-0.73059 0.2263-1.5885 0.82979-1.9062 2.375 3.0691 1.1268 7.8562 3.8643 7.5625 5.4062-0.35714 1.875-4.8125 3.5625-4.8125 3.5625s1.0804-0.52678 3.9375 0.1875c2.8571 0.71429 5.4375 12.312 5.4375 12.312s1.705-1.7718 2.0868-3.0032c1.4199-4.5796 0.16856-9.7652-2.1805-13.778-1.7235-2.9441-2.942-4.1116-8.0312-6.3438-0.63616-0.27902-1.3283-0.51263-2.0625-0.71875-0.01-3e-3 -0.0216 3e-3 -0.0312 0zm-36.281 2.5c-2.781 0.19112-4.4688 1.5312-4.4688 1.5312 2.4248 0.71155 3.3357 7.8296 2.8482 11.237-0.35715 2.5-1.442 5.0759-1.442 5.0759l2.4062 0.1875 3.9375-6.5938s-8e-3 -4.9561-0.43304-7.7812c-0.31702-2.1082-1.1664-3.7718-2.8482-3.6562z" fill="#333"/>
  <path d="m368.57 223.08s2.5 8.0357-1.0714 10.536-5.8095 2.5549-8.5714 4.1071c-5.3253 2.9929-4.1727 4.6193-6.4286 7.1429-0.87372 0.97742-3.7624 1.1461-3.7624 1.1461-1.0156 5.0258-0.56441 9.0459-0.91702 13.774-0.096 0.84053-0.40992 1.5088-0.40992 1.5088l0.89285 5c7.4188-4.2452 15.303-7.5041 22.946-10.625 2.5343-2.8798 3.1435-5.4321 14.608-9.4088 0.38771-3.4531 1.3384-5.4988 2.1775-7.8234 0 0 0.17857-0.17857-2.5-1.6071-2.6786-1.4286-1.6071-15.536-1.6071-15.536z" fill="#d38d5f"/>
  <path d="m351.16 237.5c-4.1669 0.44194-13.186 8.8043-15.031 10.156-5.4296 3.9775-4.1234 4.3854-4 8.8438l1.125-0.78125c-0.68876-3.9359 1.5283-6.6304 5.0491-6.2723 1.7623 0.17925 5.452 0.69716 7.3214 2.1741 2.3328 1.843 2.0748 2.5132 1.7946 5.1518-0.0389 0.36608 0.50447 0.68749 0.50447 0.68749 0.72557-1.8283 1.1843-2.1549 1.125-3.7098-0.40534-4.0983 0.0814-3.6225-0.16966-7.875-0.0798-0.39685 0.26166-0.75409 0.43755-1.0625 0.63134-0.37881 1.8438-7.3125 1.8438-7.3125z" fill="#1a1a1a"/>
  <path d="m383.91 221.59-14.969 2.9688c0.34293 1.5741 0.75429 4.1066 0.28125 6.2188 5.2705 0.67615 9.9219-0.50524 14.531-1.8125-0.0918-3.6036 0.1229-6.9143 0.15625-7.375z" fill="#784421"/>
  <path d="m365 167.72c-5.4367 4.6429-9.7523 8.2519-12.143 13.929-0.8512 2.0213-0.30264 5.1427-0.52673 6.5586-0.62559 3.9526-3.0208 8.138-2.8751 11.324 0.30898 6.7577 5.0934 11.503 8.2539 16.468 2.6604 4.1795 2.3682 8.8977 9.9604 10.249 7.0893 1.2616 15.147-1.7665 23.506-5.3571 5.732-2.462 14.181-11.742 14.181-11.742s1.404 2.3848 3.0051 1.0281c3.9696-3.3636 6.3574-6.3793 6.2743-11.265-0.0276-1.619-0.91561-2.882-2.4936-3.2449-1.9723-0.45354-4.2857 2.0536-4.2857 2.0536l-2.5613-19.286-28.242-15.982z" fill="#d38d5f"/>
  <path d="m376.79 186.28c-1.4521 0.63135-2.1946 0.98322-2.0834 5.7452 0.0301 1.2908-0.52486 4.1117 1.0733 4.23 0.75671 0.056 2.1466-0.75762 2.1466-0.75762s12.627-1.8309 12.501-2.5254c1.2492 0.91672 3.6947 0.96272 6.0609-0.63135 1.1996-0.63135-5.3664-6.124-6.7554-6.8185l-5.9978-1.389z" fill="#784421"/>
  <path d="m366.81 196.01c1.6497-1.5633 1.7069-4.1891 1.5784-5.9978-0.17042-2.398-3.1567-5.3033-3.1567-5.3033l-5.4296-2.6516h-3.5987s-2.0834 0.3788-3.2199 1.1996c-0.92851 0.67059 0.25254 5.5558 1.5152 5.9978l10.291 3.6618s0.0665 1.3062 0.12627 1.9572c0.12805 1.3942 1.2726 1.7254 1.894 1.1364z" fill="#784421"/>
  <path d="m357.03 188.3c0.14053-0.93612 2.1346-1.7926 3.504-2.6201 0.99537-0.60145 2.7707-0.11399 3.4724 0.47985 1.1209 0.94864 1.6415 3.2766 1.4837 4.0974 0 0-7.5762-1.894-8.46-1.9572z" fill="#502d16"/>
  <path d="m358.22 181.41c-1.8602-0.10856-4.6562 1.4688-4.6562 1.4688s3.2135-0.71597 4.7812-0.375c2.5406 0.55257 4.0734 1.989 6.3125 3.4688 1.1184 0.7391 1.5186 0.0569 1.0312-0.4375-2.3468-2.3808-4.4988-3.9517-7.4688-4.125zm28.656 2.0312c-4.4527 0.10865-6.6361 0.39141-9.5625 1.7812-2.4769 1.1764-0.72915 1.8037 0 1.5938 3.1282-0.90086 5.8373-2.3442 9.375-2.0312 1.8452 0.16325 5.0938 2.2188 5.0938 2.2188s-2.9286-3.6108-4.9062-3.5625z" fill="#500"/>
  <path d="m385.37 189.5-4.1038 0.88389-2.841 2.3991-1.1996 2.6516s2.5322 1.2088 3.8722 0.75762c1.8517-0.62344 5.5348-0.0516 5.5348-1e-5z" fill="#fff"/>
  <path d="m385.22 189.98c-1.389 0.44194-1.9152 2.0933-1.7678 3.3461 0.16032 1.3626 0.94702 2.9042 2.7148 3.0936l3.1252-0.63135 1.5784-3.2514-2.4622-2.5254z" fill="#0a4" stroke="#000" stroke-width=".5"/>
  <path d="m390.49 193.35s-3.3699-2.1876-6.2819-1.7993c-2.0053 0.26737-3.9964 1.2446-5.3033 2.7464-0.37359 0.42929-0.56821 1.6099-0.56821 1.6099l-1.1049-0.44194 2.3676-3.8512 3.8512-1.7046 4.7982 0.0631 2.3991 2.8726z" opacity=".5"/>
  <path d="m378.43 192.22c1.894-2.7148 3.8275-4.4762 6.309-4.6981 2.1893-0.19575 6.3811 2.1727 5.6866 3.3723l-3.7881-1.3258-4.1669 0.37881z" fill="#502d16"/>
  <path d="m378.73 196.02c-0.82261 0.2322-2.409 0.21712-2.3214-0.44641 0.11294-0.8562 3.2066-4.7655 5.7774-6.1192 1.7058-0.89826 2.9505-1.1251 4.7988-0.57718 1.4953 0.44328 2.6345 1.4011 4.0819 2.2411 1.0644 0.61773 3.8438 0.1696 3.8438 0.1696-0.85817 0.97551-1.6454 1.9983-3.4822 2.3214l1.7857 0.35714c-0.79068 0.42956-1.5192 0.92128-3.125 0.53572 1.5224 0.54293 1.4375 1.2655 1.5115 2.132-0.57662-0.52531-1.1302-1.1656-1.8686-0.88203l-0.87119 0.64573c1.0387 0.53571 0.64404 1.7936 0.28767 1.3862-0.75033-0.85791-1.1209-0.94421-1.553-1.0606-0.89498 0.24231-4.5651-0.37598-4.8797-0.75894 0.0241-1.0197 2.8045 0.0692 3.8183-0.0415 1.6049-0.17527 2.9062-1.1324 3.555-2.7601 0.28227-0.14113-1.3177-2.2933-3.3974-2.4197-1.7757-0.10793-3.1496 0.0448-4.8259 0.64031-1.9806 0.70363-3.7294 2.56-3.9394 3.6544-0.0797 0.41542 0.80358 0.98212 0.80358 0.98212z"/>
  <path transform="matrix(3 0 0 3 -774.98 -383.99)" d="m388.02 192.31c0 0.40098-0.32506 0.72604-0.72604 0.72604-0.40099 0-0.72605-0.32506-0.72605-0.72604 0-0.40099 0.32506-0.72605 0.72605-0.72605 0.40098 0 0.72604 0.32506 0.72604 0.72605z"/>
  <path d="m381.88 159.16c-5.047 0.0959-11.257 2.2596-13.438 4.75-7.2752-5.8572-21.812-0.4165-20.938 0.40625 0 0 6.4824 0.0443 8.3125 2.25 0.0472 0.0569 0.10769 0.0997 0.15625 0.15625-4.9283 0.0286-7.6894 1.0346-9.2812 2.5312 4.8253 0.0797 7.4683 3.1713 10.188 3.9062 0 0 2.2087 0.47535 3.3125 0.1875 1.5765-0.41112 3.583-1.6707 3.9688-3.2188 1.5647-0.21458 3.1334-0.78113 4.3125-1.7188 3.6937 9.4017 11.997 14.309 20.188 18.25 0 0-2.1607-4.9821-2.25-5.875-0.0627-0.62679 5.9954 2.0045 7.5625 3.5938 4.3283 4.3894 7.4272 6.2172 11.75 7.1875 0.37994 6.5072-2.2762 25.43-5.375 30.812-3.3928 5.8929-10.353 10.871-11.781 7.6562-1.4286-3.2143-1.25 5.0178 1.25 5.375 2.5 0.35714 11.212-9.1287 13.031-13.594 1.6048-3.9389 4.6592-21.569 4.9375-29.844 0.0211 3e-3 0.0414-3e-3 0.0625 0 0.34657-0.74313 0.37548-1.5121 0.25-2.2812 1.3364 2.8007 4.255 3.0725 6.5625 4.3125-1.9985-3.9956-1.8481-8.3031-6.8125-11.875 2.4653 1.4512 3.1893 1.4173 4.3125 1.75-2.396-4.1742-9.7324-15.318-21.469-18.844 0 0 1.9241-0.29018 4.7812-1.0938-1.811-1.7627-5.165-4.3373-12.312-4.75-0.41656-0.024-0.84333-0.0396-1.2812-0.0312z" fill="#800000"/>
  <path transform="matrix(1.5 0 0 1.5 -192.66 -94.701)" d="m388.02 192.31c0 0.40098-0.32506 0.72604-0.72604 0.72604-0.40099 0-0.72605-0.32506-0.72605-0.72604 0-0.40099 0.32506-0.72605 0.72605-0.72605 0.40098 0 0.72604 0.32506 0.72604 0.72605z" fill="#fff" opacity=".7"/>
  <path d="m382.15 198.09c3.4129-0.0417 5.7058-1.4841 5.3664-0.56821-0.27449 0.74073-1.1366 1.291-1.894 1.5152-1.1504 0.34059-4.672-0.93236-3.4724-0.94702z" fill="#a05a2c"/>
  <path d="m366.56 200.89c0.68926 0.17006 0.54324 1.0973 1.8304 1.2946 1.3984 0.21438 1.5004-0.65052 2.4107-0.80357 0.99833-0.16784 2.097 0.22512 2.9464-0.26784 0.3113-0.18065 0.53572-0.66964 0.53572-0.66964 0.66964 0.625 0.77845 1.1239-0.0446 1.6518-0.82826 0.53117-1.9716-0.1776-2.9018 0.0893-0.79486 0.22806-1.2368 0.85284-2.0536 0.98214-0.6919 0.10954-1.2653 0.0324-1.875-0.3125-0.60472-0.34214-1.0255-1.0968-1.6964-1.3839-0.4412-0.18879-0.95072-0.0266-1.25-0.40178-0.37306-0.46763-0.24345-0.90539 0.0446-1.3393 0.1697-0.25557 0.80357-0.58035 0.80357-0.58035-0.29138 0.9652 0.23221 1.4899 1.25 1.741z" fill="#784421"/>
  <path d="m357.99 192.14s0.34093 0.84278 1.6072 1.6071c0.18401 0.11108-0.39653 0.13544-0.90567-0.0251-0.95501-0.30123-1.8345-0.89374-2.0854-1.4927z" fill="#784421"/>
  <path d="m361.56 187.01-3.3705 0.84821-2.0536 2.0536 0.80358 2.2322 2.6339-0.2009 1.6518 0.44643z" fill="#fff"/>
  <path d="m362.01 187.05c-0.71429 0.17857-1.6549 1.3472-1.875 2.3214-0.18877 0.83547 0.13391 2.0536 0.58036 2.7232 0 0 1.9308 0.9288 2.8571 1.1161 0.75973 0.1536 2.0089 0 2.0089 0l0.0716-2.4786c-0.38807-1.0343-1.0024-1.8076-1.7234-2.6107-0.56416-0.56102-1.1941-0.80758-1.9196-1.0714z" fill="#0a4"/>
  <path d="m362.59 192.99c-0.61943-0.77845-1.806-1.0997-2.8572-1.2946-0.86636-0.16064-1.8877 0.29359-2.6339-0.22322-0.62151-0.43041-0.54503-1.2279-0.17856-1.6071 1.4277-1.4774 2.6265-2.3629 4.3304-2.4107 1.3674-0.0384 2.4914 0.74457 3.1696 1.7411 0.86098 1.2649 1.0329 2.3554 0.3125 3.7054-0.17232 0.32292-0.93749 0.13392-0.93749 0.13392 0.3125 0.9375 0.43162 1.6281 0.80356 2.0089 0.31349 0.32096 0.94706 0.37047 0.98215 0.0446 0.30051-2.7906 0.73683-4.4395-0.62501-6.3393-0.88889-1.24-2.3024-2.257-3.8839-2.2768-2.1449-0.0269-3.1199 1.1131-4.4196 1.4732-1.116 0.30917-2.6786-1.3393-2.6786-1.3393 0.0597 0.79234-0.19568 1.8479 0.44642 2.2768 0 0-0.84821-1e-5 -1.3839-0.22322 0.18149 0.60793 0.45335 1.4829 1.7411 1.4286-0.48522 0-1.1724 1.4068-0.80357 1.3393 1.1156-0.20437 2.1044-0.35606 2.0536 0-0.75623 0.23201-0.51926 0.96061-0.625 1.5179 0.54998-0.23933 0.68044-0.51615 1.8304-0.35715 0.79286 0.10963 1.5613-0.35353 2.4107-0.35713 1.0129-4e-3 3.5892 1.5668 2.9464 0.75892z"/>
  <path d="m362.01 187.05h-3e-5c-0.46492 0.0631-1.7157 0.8685-1.9012 2.3106-0.18227 1.4173 0.16007 2.0644 0.60652 2.734" fill="none" stroke="#000" stroke-width=".5"/>
  <path transform="matrix(2.8155 0 0 2.8155 -727.02 -351.33)" d="m388.02 192.31c0 0.40098-0.32506 0.72604-0.72604 0.72604-0.40099 0-0.72605-0.32506-0.72605-0.72604 0-0.40099 0.32506-0.72605 0.72605-0.72605 0.40098 0 0.72604 0.32506 0.72604 0.72605z"/>
  <path transform="matrix(1.4078 0 0 1.4078 -181.18 -79.214)" d="m388.02 192.31c0 0.40098-0.32506 0.72604-0.72604 0.72604-0.40099 0-0.72605-0.32506-0.72605-0.72604 0-0.40099 0.32506-0.72605 0.72605-0.72605 0.40098 0 0.72604 0.32506 0.72604 0.72605z" fill="#fff" opacity=".7"/>
  <path d="m356.96 191.58s0.14409-1.0051 0.44643-1.3839c0.86357-1.0822 2.1962-1.9608 3.5714-2.1205 1.3558-0.1575 3.9062 1.2277 3.9062 1.2277l-1.4732-1.6964-2.2545-0.625-4.0179 1.4062-0.87054 1.9866 0.11161 1.1161z" opacity=".5"/>
  <path d="m361.6 208.76s1.4261 0.35752 2.5293-0.0201c0.6045-0.20693 1.1626-1.4614 1.6376-1.5267 0.40709-0.0559 0.71925 0.33914 1.0417 0.56818 0.81966 0.58217 1.9226 0.59681 2.7148-0.1263 0.2866-0.26161 0.94044 0.10555 1.3749 0.4388 0.73479 0.56355 1.2829 1.6005 2.1106 1.7165 1.4274 0.20007 2.6169 0.3169 2.6069 0.30694l2.5254 0.37881c-2.6516 1.2627-3.5936 4.0553-6.0609 4.9561-2.1909 0.79989-4.9313 0.97868-6.8501-0.34724-1.9789-1.3675-3.6302-6.345-3.6302-6.345z" fill="#800000"/>
  <path d="m365.7 207.2c-0.87844 0.28029-1.0065 1.0436-1.8616 1.4464-0.20856 0.0982-0.48106 0.21568-0.95982 0.32143 0.95725 0.0738 1.2172-0.10944 1.9018-0.70535 0.18409-0.16025 0.70261-0.90487 1.0982-0.84822 0.62747 0.0898 1.0279 1.1637 2.6786 0.9375 0.59912-0.0821 1.3103-0.75727 1.8093-0.39413 0.8576 0.62407 1.8431 2.0502 2.9665 2.1328 1.0865 0.10427 2.1762-0.0475 3.2644-0.0289-1.0551-0.19625-2.1168-0.39526-3.1385-0.72414-0.93345-0.2515-1.7285-1.0024-2.549-1.5287-0.74072-0.47516-0.69375-0.3224-1.3929-0.31857-0.45431 0.0572-0.98882 0.71039-1.6288 0.63412-1.0839-0.1292-1.3235-1.2002-2.1882-0.92426zm-2.2946 5.9732c1.0132 1.3946 1.8956 2.6082 3.8705 2.8629 2.2835 0.34022 4.3131-0.1319 6.1257-1.2398 0.86885-0.50172 1.559-1.2255 2.2276-1.9613 0.45027-0.45696 0.85655-0.95443 1.2495-1.4608-0.94233 0.3972-1.7332 1.0634-2.5312 1.6875-2.3017 1.783-4.4188 2.5083-7.0746 2.1012-1.987-0.30457-2.7155-1.0635-3.2243-1.7068-0.83227-0.94308-1.6198-2.8051-1.8907-3.0884 0.23225 0.56002 0.92785 2.3265 1.2477 2.8057z" color="#000000" fill="#500" style="block-progression:tb;text-indent:0;text-transform:none"/>
  <path d="m360.66 208.09c-0.47893-0.0943 0.5197-0.64019 0.0631-1.1364-0.61995 0.86747-1.2041 1.118-2.0203 1.5152-0.45065 0.21932 0.64778 0.70441 0.91545 0.69448 1.5264-0.0566 2.7189 0.32732 4.009 0.75761 1.3571 0.45262 2.8776 1.7504 4.2932 1.9572 1.8795 0.27455 3.487-0.52519 5.177-1.0102 2.0341-0.5837 6.2911-0.32335 6.3135-0.1894 0 0 0.93494 0.41797 0.78918 0.91545-0.14176 0.48386 0.78252 0.16585 0.63134-0.0631-0.54686-0.8283-0.82225-1.5452-0.88388-2.557-0.0196-0.32133-0.5158-0.37007-0.72605-0.12626-0.27523 0.31913 0.35744 1.1005-0.0631 1.0733-2.0401-0.13215-4.0936 0.0409-6.124 0.2525-1.8144 0.18911-3.2405 1.2986-5.0508 1.0733-1.5039-0.18716-3.0034-1.4171-4.4194-1.9572-1.4742-0.5821-1.6413-1.1865-2.9042-1.1996z" fill="#2b1100"/>
  <path d="m358.44 238.56c-0.42024 0.0237-1.2226 0.1212-0.84375 0.5 0.50508 0.50508 4.868 0.68115 5.5625 1.3125s0.4381-0.0549 0.375-0.8125c-0.0631-0.75761-4.875-1-4.875-1s-0.0787-8e-3 -0.21875 0zm8.8125 1.5c-0.21098-0.0451-0.39274 0.0615-0.4375 0.4375-0.18077 1.5188-0.71634 3.027 1.5 3.375 1.5832 0.24858 2.5249-1.023 3.1562-1.8438 1.205-1.5666 0.0701-2.5401-0.6875-1.6562-0.47915 0.55902-2.0963 1.436-2.5312 0.65625-0.2071-0.37126-0.64836-0.89364-1-0.96875zm8.5312 0.78125c-0.18941 1.1364 0.5 1.5625 0.5 1.5625s9.7794-0.12373 9.9688-0.25-1.3311-1.0631-2.5938-1c-1.2627 0.0631-7.875-0.3125-7.875-0.3125zm-20.594 9.7812s1.7168 3.0141 1.9062 4.7188c0.29156 1.695-0.40287 2.7873-1.0625 3.6562-0.56821 0.75761-2.9268 3.5929-4.6875 5.0625-0.80634 0.67304-2.1346 1.4411-2.8438 1.8438l0.0625 0.28125c2.6881-1.5382 5.4244-2.9141 8.1562-4.2188 0.86291-3.807 4.8643-6.7881 6.0625-7.375 1.8364-1.091 4.9764-1.6524 4.2188-2.0312-2.1508-0.264-5.4995 2.3383-7.6875 1.7188-1.3928-0.45163-2.7132-3.4354-4.125-3.6562z" fill="#784421"/>
  <path d="m363.8 258.73c0.52086-0.01 2.6565 0.52003 3.8724-4e-3 1.0071-0.43402 3.4371-0.66152 5.5976 0.62419 4.9262 2.9315 3.2691 1.8013 5.3371 3.4354 0.90043 0.71152-2.1046-2.3612-3.036-3.4819-3.1782-3.824-5.829-2.6637-5.0348-3.1524 0.84461-0.51967 1.831-0.86528 2.9043-0.73901-2.3711-1.0726-6.678 0.30351-9.6406 3.3181z" fill="#1a1a1a"/>
  <path d="m361.61 302.63c-6.8155 2.6084-13.631 5.7187-20.446 7.2322l-0.26786 2.1428c7.5742-1.3128 14.765-4.4708 21.964-7.5893z" fill="#500"/>
  <path d="m336.38 284.46c-1.6071 0 2.0094 14.302 1.6594 21.472-0.30056 6.1579-1.9643 16.786-3.2143 18.214s-1.4286 3.5714 0.35714 3.5714 5.3571 1.9643 6.4286 0.53571c1.0714-1.4286-0.43037-6.189-0.35714-9.2857 0.18078-7.645 0.49248-15.353 1.9643-22.857 0.5399-2.7528 1.7857-6.7857 2.5-8.0357 0.71429-1.25-1.838-3.7933-3.088-3.7933s0.66732 0.17857-6.25 0.17857z"/>
  <path d="m360 286.29c-2.8722-1.0457-5.7143-0.71429-5.1786 1.6071 0.53571 2.3214 5.0435 13.347 5.3571 20.357 0.31843 7.1169-1.2735 15.913-3.5714 21.071-0.58588 1.3151-1.4286 3.2143 0.53572 4.2857 1.9643 1.0714 3.9286 0.71428 5.7143-0.35715 1.7857-1.0714 5.5642-5.1568 12.143-4.6429 4.7522 0.37127 7.8807 3.2221 7.6786 1.25-0.22222-2.1684-4.4252-12.6-4.1071-19.107 0.37218-7.6148 6.25-20.357 6.9643-21.786 0.71429-1.4286-1.8401-2.4567-3.9286-0.71428-5.1147 4.2672-17.067-0.31146-21.607-1.9643z"/>
  <g>
   <path d="m364.16 293.11c0 1.7434-1.3568 3.1567-3.0304 3.1567-1.6737 0-3.0305-1.4133-3.0305-3.1567s1.3568-3.1567 3.0305-3.1567c1.6737 0 3.0304 1.4133 3.0304 3.1567z" fill="#c8ab37"/>
   <path d="m363.02 293.11c0 1.046-0.84799 1.894-1.894 1.894-1.046 0-1.894-0.84799-1.894-1.894 0-1.046 0.84799-1.894 1.894-1.894 1.046 0 1.894 0.84799 1.894 1.894z"/>
   <path transform="matrix(-1 0 0 -1 721.94 585.56)" d="m361.12 290.16c-1.5575 0-2.8125 1.3012-2.8125 2.9375 0 0.32745 0.0567 0.66549 0.15625 0.96875 3e-3 0.01-3e-3 0.0218 0 0.0312 0.0221 0.043 0.0587 0.0567 0.0625 0.0625 0.50888 0.78416 1.3722 1.3125 2.3438 1.3125 1.5575 0 2.8125-1.3012 2.8125-2.9375 0-0.32745-0.0567-0.66552-0.15625-0.96875-3e-3 -0.01 3e-3 -0.0218 0-0.0312-0.0221-0.043-0.0587-0.0567-0.0625-0.0625-0.50862-0.78422-1.3722-1.3125-2.3438-1.3125zm-0.25 0.28125c1.1551 0 2.125 0.93454 2.125 2.0938s-0.96579 2.125-2.125 2.125-2.0938-0.9699-2.0938-2.125 0.93865-2.0938 2.0938-2.0938z" fill="#fff6d5"/>
  </g>
  <g transform="translate(2.5 10.446)">
   <path d="m364.16 293.11c0 1.7434-1.3568 3.1567-3.0304 3.1567-1.6737 0-3.0305-1.4133-3.0305-3.1567s1.3568-3.1567 3.0305-3.1567c1.6737 0 3.0304 1.4133 3.0304 3.1567z" fill="#c8ab37"/>
   <path d="m363.02 293.11c0 1.046-0.84799 1.894-1.894 1.894-1.046 0-1.894-0.84799-1.894-1.894 0-1.046 0.84799-1.894 1.894-1.894 1.046 0 1.894 0.84799 1.894 1.894z"/>
   <path transform="matrix(-1 0 0 -1 721.94 585.56)" d="m361.12 290.16c-1.5575 0-2.8125 1.3012-2.8125 2.9375 0 0.32745 0.0567 0.66549 0.15625 0.96875 3e-3 0.01-3e-3 0.0218 0 0.0312 0.0221 0.043 0.0587 0.0567 0.0625 0.0625 0.50888 0.78416 1.3722 1.3125 2.3438 1.3125 1.5575 0 2.8125-1.3012 2.8125-2.9375 0-0.32745-0.0567-0.66552-0.15625-0.96875-3e-3 -0.01 3e-3 -0.0218 0-0.0312-0.0221-0.043-0.0587-0.0567-0.0625-0.0625-0.50862-0.78422-1.3722-1.3125-2.3438-1.3125zm-0.25 0.28125c1.1551 0 2.125 0.93454 2.125 2.0938s-0.96579 2.125-2.125 2.125-2.0938-0.9699-2.0938-2.125 0.93865-2.0938 2.0938-2.0938z" fill="#fff6d5"/>
  </g>
  <g transform="translate(3.0357 21.25)">
   <path d="m364.16 293.11c0 1.7434-1.3568 3.1567-3.0304 3.1567-1.6737 0-3.0305-1.4133-3.0305-3.1567s1.3568-3.1567 3.0305-3.1567c1.6737 0 3.0304 1.4133 3.0304 3.1567z" fill="#c8ab37"/>
   <path d="m363.02 293.11c0 1.046-0.84799 1.894-1.894 1.894-1.046 0-1.894-0.84799-1.894-1.894 0-1.046 0.84799-1.894 1.894-1.894 1.046 0 1.894 0.84799 1.894 1.894z"/>
   <path transform="matrix(-1 0 0 -1 721.94 585.56)" d="m361.12 290.16c-1.5575 0-2.8125 1.3012-2.8125 2.9375 0 0.32745 0.0567 0.66549 0.15625 0.96875 3e-3 0.01-3e-3 0.0218 0 0.0312 0.0221 0.043 0.0587 0.0567 0.0625 0.0625 0.50888 0.78416 1.3722 1.3125 2.3438 1.3125 1.5575 0 2.8125-1.3012 2.8125-2.9375 0-0.32745-0.0567-0.66552-0.15625-0.96875-3e-3 -0.01 3e-3 -0.0218 0-0.0312-0.0221-0.043-0.0587-0.0567-0.0625-0.0625-0.50862-0.78422-1.3722-1.3125-2.3438-1.3125zm-0.25 0.28125c1.1551 0 2.125 0.93454 2.125 2.0938s-0.96579 2.125-2.125 2.125-2.0938-0.9699-2.0938-2.125 0.93865-2.0938 2.0938-2.0938z" fill="#fff6d5"/>
  </g>
  <g transform="translate(1.7857 31.786)">
   <path d="m364.16 293.11c0 1.7434-1.3568 3.1567-3.0304 3.1567-1.6737 0-3.0305-1.4133-3.0305-3.1567s1.3568-3.1567 3.0305-3.1567c1.6737 0 3.0304 1.4133 3.0304 3.1567z" fill="#c8ab37"/>
   <path d="m363.02 293.11c0 1.046-0.84799 1.894-1.894 1.894-1.046 0-1.894-0.84799-1.894-1.894 0-1.046 0.84799-1.894 1.894-1.894 1.046 0 1.894 0.84799 1.894 1.894z"/>
   <path transform="matrix(-1 0 0 -1 721.94 585.56)" d="m361.12 290.16c-1.5575 0-2.8125 1.3012-2.8125 2.9375 0 0.32745 0.0567 0.66549 0.15625 0.96875 3e-3 0.01-3e-3 0.0218 0 0.0312 0.0221 0.043 0.0587 0.0567 0.0625 0.0625 0.50888 0.78416 1.3722 1.3125 2.3438 1.3125 1.5575 0 2.8125-1.3012 2.8125-2.9375 0-0.32745-0.0567-0.66552-0.15625-0.96875-3e-3 -0.01 3e-3 -0.0218 0-0.0312-0.0221-0.043-0.0587-0.0567-0.0625-0.0625-0.50862-0.78422-1.3722-1.3125-2.3438-1.3125zm-0.25 0.28125c1.1551 0 2.125 0.93454 2.125 2.0938s-0.96579 2.125-2.125 2.125-2.0938-0.9699-2.0938-2.125 0.93865-2.0938 2.0938-2.0938z" fill="#fff6d5"/>
  </g>
  <g transform="matrix(.73483 0 0 1 75.313 -1.9643)">
   <path d="m364.16 293.11c0 1.7434-1.3568 3.1567-3.0304 3.1567-1.6737 0-3.0305-1.4133-3.0305-3.1567s1.3568-3.1567 3.0305-3.1567c1.6737 0 3.0304 1.4133 3.0304 3.1567z" fill="#c8ab37"/>
   <path d="m363.02 293.11c0 1.046-0.84799 1.894-1.894 1.894-1.046 0-1.894-0.84799-1.894-1.894 0-1.046 0.84799-1.894 1.894-1.894 1.046 0 1.894 0.84799 1.894 1.894z"/>
   <path transform="matrix(-1 0 0 -1 721.94 585.56)" d="m361.12 290.16c-1.5575 0-2.8125 1.3012-2.8125 2.9375 0 0.32745 0.0567 0.66549 0.15625 0.96875 3e-3 0.01-3e-3 0.0218 0 0.0312 0.0221 0.043 0.0587 0.0567 0.0625 0.0625 0.50888 0.78416 1.3722 1.3125 2.3438 1.3125 1.5575 0 2.8125-1.3012 2.8125-2.9375 0-0.32745-0.0567-0.66552-0.15625-0.96875-3e-3 -0.01 3e-3 -0.0218 0-0.0312-0.0221-0.043-0.0587-0.0567-0.0625-0.0625-0.50862-0.78422-1.3722-1.3125-2.3438-1.3125zm-0.25 0.28125c1.1551 0 2.125 0.93454 2.125 2.0938s-0.96579 2.125-2.125 2.125-2.0938-0.9699-2.0938-2.125 0.93865-2.0938 2.0938-2.0938z" fill="#fff6d5"/>
  </g>
  <g transform="matrix(.67591 0 0 1 95.432 7.6786)">
   <path d="m364.16 293.11c0 1.7434-1.3568 3.1567-3.0304 3.1567-1.6737 0-3.0305-1.4133-3.0305-3.1567s1.3568-3.1567 3.0305-3.1567c1.6737 0 3.0304 1.4133 3.0304 3.1567z" fill="#c8ab37"/>
   <path d="m363.02 293.11c0 1.046-0.84799 1.894-1.894 1.894-1.046 0-1.894-0.84799-1.894-1.894 0-1.046 0.84799-1.894 1.894-1.894 1.046 0 1.894 0.84799 1.894 1.894z"/>
   <path transform="matrix(-1 0 0 -1 721.94 585.56)" d="m361.12 290.16c-1.5575 0-2.8125 1.3012-2.8125 2.9375 0 0.32745 0.0567 0.66549 0.15625 0.96875 3e-3 0.01-3e-3 0.0218 0 0.0312 0.0221 0.043 0.0587 0.0567 0.0625 0.0625 0.50888 0.78416 1.3722 1.3125 2.3438 1.3125 1.5575 0 2.8125-1.3012 2.8125-2.9375 0-0.32745-0.0567-0.66552-0.15625-0.96875-3e-3 -0.01 3e-3 -0.0218 0-0.0312-0.0221-0.043-0.0587-0.0567-0.0625-0.0625-0.50862-0.78422-1.3722-1.3125-2.3438-1.3125zm-0.25 0.28125c1.1551 0 2.125 0.93454 2.125 2.0938s-0.96579 2.125-2.125 2.125-2.0938-0.9699-2.0938-2.125 0.93865-2.0938 2.0938-2.0938z" fill="#fff6d5"/>
  </g>
  <g transform="matrix(.58752 0 0 1 126.19 18.125)">
   <path d="m364.16 293.11c0 1.7434-1.3568 3.1567-3.0304 3.1567-1.6737 0-3.0305-1.4133-3.0305-3.1567s1.3568-3.1567 3.0305-3.1567c1.6737 0 3.0304 1.4133 3.0304 3.1567z" fill="#c8ab37"/>
   <path d="m363.02 293.11c0 1.046-0.84799 1.894-1.894 1.894-1.046 0-1.894-0.84799-1.894-1.894 0-1.046 0.84799-1.894 1.894-1.894 1.046 0 1.894 0.84799 1.894 1.894z"/>
   <path transform="matrix(-1 0 0 -1 721.94 585.56)" d="m361.12 290.16c-1.5575 0-2.8125 1.3012-2.8125 2.9375 0 0.32745 0.0567 0.66549 0.15625 0.96875 3e-3 0.01-3e-3 0.0218 0 0.0312 0.0221 0.043 0.0587 0.0567 0.0625 0.0625 0.50888 0.78416 1.3722 1.3125 2.3438 1.3125 1.5575 0 2.8125-1.3012 2.8125-2.9375 0-0.32745-0.0567-0.66552-0.15625-0.96875-3e-3 -0.01 3e-3 -0.0218 0-0.0312-0.0221-0.043-0.0587-0.0567-0.0625-0.0625-0.50862-0.78422-1.3722-1.3125-2.3438-1.3125zm-0.25 0.28125c1.1551 0 2.125 0.93454 2.125 2.0938s-0.96579 2.125-2.125 2.125-2.0938-0.9699-2.0938-2.125 0.93865-2.0938 2.0938-2.0938z" fill="#fff6d5"/>
  </g>
  <g transform="matrix(.67591 0 0 1 94.092 28.571)">
   <path d="m364.16 293.11c0 1.7434-1.3568 3.1567-3.0304 3.1567-1.6737 0-3.0305-1.4133-3.0305-3.1567s1.3568-3.1567 3.0305-3.1567c1.6737 0 3.0304 1.4133 3.0304 3.1567z" fill="#c8ab37"/>
   <path d="m363.02 293.11c0 1.046-0.84799 1.894-1.894 1.894-1.046 0-1.894-0.84799-1.894-1.894 0-1.046 0.84799-1.894 1.894-1.894 1.046 0 1.894 0.84799 1.894 1.894z"/>
   <path transform="matrix(-1 0 0 -1 721.94 585.56)" d="m361.12 290.16c-1.5575 0-2.8125 1.3012-2.8125 2.9375 0 0.32745 0.0567 0.66549 0.15625 0.96875 3e-3 0.01-3e-3 0.0218 0 0.0312 0.0221 0.043 0.0587 0.0567 0.0625 0.0625 0.50888 0.78416 1.3722 1.3125 2.3438 1.3125 1.5575 0 2.8125-1.3012 2.8125-2.9375 0-0.32745-0.0567-0.66552-0.15625-0.96875-3e-3 -0.01 3e-3 -0.0218 0-0.0312-0.0221-0.043-0.0587-0.0567-0.0625-0.0625-0.50862-0.78422-1.3722-1.3125-2.3438-1.3125zm-0.25 0.28125c1.1551 0 2.125 0.93454 2.125 2.0938s-0.96579 2.125-2.125 2.125-2.0938-0.9699-2.0938-2.125 0.93865-2.0938 2.0938-2.0938z" fill="#fff6d5"/>
  </g>
  <path d="m340.71 289.95-0.89285 1.875c7.5744 5.96 15.525 9.8514 23.571 13.214l0.53571-1.9643c-8.1937-3.6916-15.973-8.0054-23.214-13.125z" fill="#500"/>
  <path d="m360.09 292.62c-5.7964 2.2184-11.61 4.7841-17.406 6.4375-0.12206 0.77707-0.21103 1.5634-0.3125 2.3438 6.4832-1.535 12.728-4.2968 18.969-7l-1.25-1.7812z" fill="#500"/>
  <path d="m339.55 299.86-0.89285 1.875c7.5744 5.96 16.686 10.387 24.732 13.75l0.53571-1.9643c-8.1937-3.6916-17.133-8.5411-24.375-13.661z" fill="#500"/>
  <path d="m339.02 310.58-0.89285 1.875c7.5744 5.96 16.686 10.387 24.732 13.75l0.53571-1.9643c-8.1937-3.6916-17.133-8.5411-24.375-13.661z" fill="#500"/>
  <path d="m360 314.41c-6.6853 2.4168-15.5 4.8552-21.781 6.25l-0.28125 2.1562c6.4831-1.1237 14.911-2.9055 21.719-5.3438 0.13946-1.0154 0.25774-2.042 0.34375-3.0625z" fill="#500"/>
  <path d="m434.46 376.47s-1.4286 2.8571-1.3393 3.9286c0.0893 1.0714 3.0357-1.875 3.0357-1.875zm-30.908-26.163s19.535 16.132 21.429 17.394c1.894 1.2627 7.3606 5.2077 7.3606 5.2077l-1.6415-2.2728zm-25.001-11.869c0-1.7678-1.389-3.7881-2.9042-3.9144-1.5152-0.12626-1.0102 2.7779-0.63135 4.0406 0.37881 1.2627 12.879 35.103 14.268 37.502 1.389 2.3991 4.1669 14.142 4.1669 14.142 0.81435 1.6192 0.55801 2.683-0.3788 3.9143-0.63135 1.1996 2.5254-0.3788 2.5254-0.3788l-2.5254-8.2075s-15.109-41.018-16.036-43.942c-4.9063-15.477 34.85 45.583 34.85 45.583s3.0305 0.12626 2.3991-0.25254c-1.6801-1.9797-2.0058-4.3605-2.3991-6.8185-12.303-12.221-22.63-27.21-33.335-41.669zm-13.385-4.4194c1.389 0.50507 0.75762 1.5152 0.25254 2.6516s-2.1466 3.4093-2.1466 5.0508 2.956 13.36 2.3991 20.077c-0.70658 8.5217-7.1973 24.622-7.1973 24.622h-1.389s6.0264-14.603 6.9448-22.35c0.75977-6.4086-1.2627-18.435-1.2627-19.319s-0.63134-5.8084 0.12627-6.4397c0.75761-0.63135 2.2728-4.2932 2.2728-4.2932zm-8.46 56.695s2.1466 2.6516 2.0203 3.6618-3.1567 1.7678-3.1567 1.7678zm-5.8084-56.316c0.28507 1.1338-5.4296 5.3033-7.4499 5.8084-2.0203 0.50508-37.897 12.816-39.459 12.816-0.82075 1e-5 -1.2627-0.12627-1.2627-0.12627 0.16872 0.13805 41.772-13.566 43.121-15.342 1.652-2.1751 1.5413-2.9802 2.9673-3.5355 0.85661-0.33355 1.8593-0.5127 2.0834 0.37881zm-25.001 46.467c0.25254 0.50508 2.6525 1.8948 4.2932 0.12627 1.9211-2.0709 33.547-47.591 32.577-44.699-0.30572 0.91174 0.37881-2.5254-0.12627-2.3991-0.50507 0.12627-30.683 42.679-30.683 42.679-2.2827 2.4806-4.0823 3.0288-6.0609 4.2932zm-36.492-40.659c-0.75761 2.2728-4.5457 2.9042-6.566 5.8084-1.3681 1.9667 0.95337 1.5526 6.0609-0.50508 3.2479-1.3085 46.972-11.364 49.75-11.364s3.6893 0.17627 5.0508-0.12628c0.93873-0.2086 3.7848-2.0078 1.7678-1.894-1.71 0.0965-40.371 5.3249-52.55 6.1802-1.9863 0.13949-2.5896-0.87116-3.5137 1.901z"/>
  <path d="m322.24 306.68c-0.91937 1.0554 0.25254 2.2728 1.2311 2.4622 0.97858 0.1894 2.9042-1.7678 2.7148-2.4307-1.4008-0.78333-2.8122-1.3329-3.9459-0.0316z"/>
  <path d="m329.91 313.12c0.12186 0.83497 1.1463 1.5011 1.7993 1.2627 1.4313-0.5225 1.5784-1.8625 0.25254-2.8095 0 0-2.1734 0.71402-2.0519 1.5468z"/>
  <path d="m322.81 308.29c0.82295 1.0378 1.9256 0.58403 4.1353 1.8467 2.2097 1.2627 3.2672 2.92 3.2672 2.92s0.49073 1.1373 1.31 0.97859c2.1193-0.41046 1.3872-2.8232 0.88388-3.1883-0.65113-0.47225-4.4753-3.7807-6.8185-4.5772-0.92432-0.31421-2.3991-0.75762-2.9042 0.3788-0.50508 1.1364-0.21471 1.2115 0.12627 1.6415z" fill="#2b0000"/>
  <path d="m328.11 300.52c-0.8346 0.84998 0.0316 2.1781 1.0102 2.3675 0.97858 0.1894 2.9042-1.7678 2.7148-2.4307-2.0626-0.83428-2.4615-1.2236-3.7249 0.0631z"/>
  <path d="m333.16 304.44c0.12186 0.83497 1.1463 1.5011 1.7993 1.2627 1.4313-0.5225 1.5784-1.8625 0.25254-2.8095 0 0-2.1734 0.71402-2.0519 1.5468z"/>
  <path d="m331.8 303.26c0.53185 0.18978 1.3411 1.4036 2.1308 1.9572 0.62263 0.43643 1.1838 0.2052 1.4994 0.0158s0.4996-1.4834 0.221-2.1466c-0.64095-1.5257-2.8496-2.9103-3.8828-3.0936-0.93452-0.16579-2.2399-0.41207-3.0304 0.22101-0.45473 0.36412-0.71497 1.1296-0.50508 1.6731 0.13264 0.34341 0.60271 0.58565 0.94701 0.56822 1.1956-0.0605 2.0751 0.61045 2.6201 0.80493z" fill="#2b0000"/>
  <path d="m404.67 299.35c1.693 0.0594 2.223-1.2307 2.2889-2.3928 0.10315-1.8189-0.96659-2.5345-2.3629-2.0932-1.3066 0.41297-1.2955 4.4379 0.074 4.486z"/>
  <path d="m400.97 295.51c-1.4228 0.3255-1.2893 4.1684 1.0733 3.9143 1.4918-0.16044 2.4456-0.13448 3.5987-0.88388 1.7245-1.1208 0.67052-4.3308-1.0733-4.1037-1.3473 0.17542-3.5987 1.0733-3.5987 1.0733z" fill="#2b0000"/>
  <path d="m408.08 306.87c1.693 0.0594 2.223-1.2307 2.2889-2.3928 0.10315-1.8189-0.96659-2.5345-2.3629-2.0932-1.3066 0.41297-1.2955 4.4379 0.074 4.486z"/>
  <path d="m403.95 303.65c-1.8837 0.86604 0.0717 4.0763 1.943 3.6035 1.4547-0.36754 2.3988-0.49455 3.4284-1.4062 1.5398-1.3634 0.0229-4.3823-1.6682-3.9-1.3065 0.37267-3.7033 1.7026-3.7033 1.7026z" fill="#2b0000"/>
  <path d="m464.94 271.78-9.0938 11.656c-2.4166 4.4591-5.2292 10.1-6.375 14.094-1.214 4.2311-2.189 9.996-2.875 15.719l26.406-32.125-8.0625-9.3438z" fill="#d38d5f"/>
  <path d="m466.15 247.17-2.8464 8.8742-3.8511 8.5394s-0.66976 7.8696 1.1721 10.214 6.6975 4.186 6.6975 4.186 0.50232 3.6836 3.0139 4.6883c2.5116 1.0046 6.1788 0.78248 8.037 0 2.7569-1.1609 6.1149-5.3961 7.211-6.1841 2.4221-1.7412 11.71-9.3877 12.547-11.062 0.83719-1.6744 1.0046-5.358-1.8418-2.8464-2.8464 2.5116-8.7068 5.8604-8.7068 5.8604s9.9406-10.34 11.051-12.056c1.8418-2.8464 0.33488-4.8557-2.1767-2.8464-2.5116 2.0093-11.553 9.2091-11.553 9.2091s8.5394-9.8789 10.716-12.558c1.9412-2.3891 0.16743-5.5255-3.0139-2.3441-3.1813 3.1813-11.386 10.716-11.386 10.716s6.1952-9.2091 7.7022-11.888c1.5069-2.679-0.33488-5.1906-3.6836-1.6744-3.2682 3.4316-5.9667 6.765-9.2091 10.214-1.2731 1.3542-2.679 1.8418-4.186 3.6836-0.89968 1.0996-3.8511 1.8418-3.8511-0.33487 0-2.1767 2.8464-4.5208 1.8418-8.037-1.0046-3.5162-3.6836-4.3534-3.6836-4.3534z" fill="#d38d5f"/>
  <path d="m460.71 276.92s2.8293 6.2284 5.4464 8.2143c0.84725 0.64288 3.0357 0.98214 3.0357 0.98214l0.89286-1.6071 1.6964 1.3393s3.6607 0.80358 4.4643 2.4107 5.0893 2.3214 5.0893 2.3214 0.98214 1.25 1.0714 1.9643c0.0893 0.71429-5-1.25-6.1607-1.875-1.1607-0.625-1.1607-3.0357-2.7679-3.125-1.6071-0.0893-1.875 0.0893-1.875 0.0893s-0.26785 3.125-1.0714 3.5714c-0.80358 0.44643 1.4286 4.9107 2.0536 5.1786s4.1964 3.125 4.1964 3.125-0.17858 2.5893-1.3393 1.6071-6.875-7.5-6.875-8.75 0.44643-2.9464 0.44643-2.9464-2.5651-0.61898-4.0179-0.80357c-2.6453-0.33612-7.5566-8.6618-6.6964-9.8214 0.73896-0.99625 2.1429-3.3036 2.5-3.2143 0.35715 0.0893 0.80357 0.53571 0.80357 0.53571z" fill="#500"/>
  <path d="m305.19 390.56c-2.8648 2.516-5.7072 5.0767-8.3438 7.875 0.47047 0.67427 0.96898 1.3888 1.4688 2.0938 2.6245-2.7592 5.4182-5.4162 8.4375-7.9375-0.40946-0.62814-0.9591-1.309-1.5625-2.0312zm5.3438 9.3125c-2.5125 2.5461-4.8081 5.1884-6.9688 7.875 0.65512 0.88264 1.2612 1.7276 1.9375 2.625l6.5-7.7188c-0.47885-0.91443-1.0347-1.9483-1.4688-2.7812zm5.5938 10.688c-1.5611 2.7007-2.9776 5.4332-4.1562 8.1875 0.678 0.85603 1.3504 1.7174 2.0312 2.5625 1.0462-2.7394 2.2005-5.4184 3.5625-8.0312-0.4865-0.92765-0.92302-1.7396-1.4375-2.7188zm5.0312 9.5938c-0.85273 2.2852-1.734 4.5472-2.375 6.9375 0.7387 0.87559 1.4922 1.7233 2.2188 2.5625 0.43317-2.1147 1.0267-4.2079 1.75-6.2812-0.15123-0.22229-0.27403-0.45622-0.375-0.71875-0.1024-0.26624-0.58251-1.2566-1.2188-2.5zm7.2812 9.1562c-0.0466 2.7505-0.0844 5.5002-0.0312 8.2188 0.91823 0.85254 1.8962 1.683 2.9062 2.5-0.15991-2.5111-0.30414-5.0083-0.25-7.5625-0.93254-1.1214-1.8423-2.225-2.625-3.1562z" fill="#333"/>
  <path d="m307.72 387.56c-7.1612 1.2751-13.228 1.0211-22.219 5.1562-1.0632 0.48898 1.0773 3.2343 2.1562 2.7812 6.9619-2.9236 13.189-3.2596 22.219-4.5312 1.3298-0.18727-0.83413-3.6417-2.1562-3.4062zm5.3125 9.0938c-7.1612 1.2751-11.853 1.6774-20.844 5.8125-1.0632 0.48898 1.0773 3.2031 2.1562 2.75 6.9619-2.9236 11.782-3.8846 20.812-5.1562 1.3298-0.18727-0.80288-3.6417-2.125-3.4062zm5.1562 9.8438c-7.1612 1.2751-9.6968 1.4274-18.688 5.5625-1.0632 0.48898 1.0773 3.2343 2.1562 2.7812 6.9619-2.9236 9.6574-3.6658 18.688-4.9375 1.3298-0.18727-0.83413-3.6417-2.1562-3.4062zm4.125 10c-0.0886 8e-3 -0.17296 0.0292-0.25 0.0625-6.6768 2.8862-4.9185 0.87873-12.719 6.9688-0.92238 0.72015 1.7728 2.9076 2.7188 2.2188 6.104-4.4448 4.3786-3.0628 12.875-6.375 1.173-0.45727-1.2963-2.997-2.625-2.875zm6.8438 8.875c-0.19621-0.013-0.38289 0.0152-0.53125 0.0937-6.4287 3.4031-4.2036 0.50203-11.5 7.1875-0.8628 0.79056 2.0175 2.7612 2.9062 2 5.735-4.9118 3.4783-2.6226 11.688-6.5938 1.0578-0.51169-1.189-2.5964-2.5625-2.6875zm7.375 8.7812c-0.47001-0.0162-0.86397 0.0677-1.0938 0.3125-4.9783 5.3034-2.4212 0.40403-7.1562 9.0938-0.55993 1.0276 2.781 1.9457 3.375 0.9375 3.833-6.5057 1.0527-2.1759 7.5312-8.5938 0.71553-0.70883-1.2462-1.7015-2.6562-1.75z" fill="#333"/>
  <path d="m250.98 373.17c-0.625 1.9643-0.625 4.9107-0.26785 5.5357 0.80357 1.6071 3.2143 1.4286 4.0179 0.71428 0.80357-0.71428 0.70133-4.6727 0.26785-5.5357-0.80357-1.5998-4.0179-1.2839-4.0179-0.71429z" fill="#d38d5f"/>
  <path d="m347.78 233.16c-2.3267-0.0865-2.3202 3.7805-3.1562 6.625-0.0149 0.0507-0.0526 0.0852-0.0937 0.125 1.5454-0.69833 3.1144-1.3222 4.7188-1.8125-1.7658 0.7748-3.8894 2.1985-5.9375 3.75 0.7037-0.33048 1.9181-0.87057 2.9062-1.0625 1.9481-0.37839 2.7046 1.5562 2.9375 3.6875 0.86676-3.4259 2.2277-11.179-1.375-11.312z"/>
  <path d="m441.79 390.58-2.8571 3.5714 1.7857 1.0714-0.35714 1.4286h-4.2857l-1.0714 2.8571 4.2857 1.7857-1.4286 3.9286-7.1429-2.5-0.71428 4.6429 20.714 7.1428-15.714 1.7857 0.71428 4.6429 13.929-2.5 15 2.1428s22.5 16.786 25 18.929c2.5 2.1429 38.214 16.429 43.929 18.929 5.7143 2.5 14.643 4.2857 18.571 4.2857 3.9286 0 30.357 12.143 30.357 12.143l1.4286-1.7857-20.357-10s19.286 2.8571 24.643 3.2143c5.3571 0.35714 16.786 4.2857 18.929 4.6428 2.1429 0.35715 7.8572 3.2143 7.8572 3.2143l0.71428-3.9286-11.429-4.2857 10.714-1.0714 10.357 4.2857v-5s-13.571-5.3571-18.929-7.5c-5.3572-2.1429-16.786-5-16.786-5h21.786l11.786 4.6429 0.35714-3.2143-23.929-11.429 26.786 10.357v-3.2143l-23.214-10.714s-17.143-5.7143-15.714-6.0714c1.4286-0.35714 15.357 1.0714 20 1.7857 4.6428 0.71428 20 10.357 20 10.357l1.7857-3.9286s-9.2857-6.0714-12.857-7.5-16.071-2.8571-20.714-4.6429c-4.6429-1.7857-33.571-13.929-33.571-13.929s5.7143-2.5 8.9286-1.4286c3.2143 1.0714 18.571 10 23.571 11.429s8.9286 3.5714 8.9286 3.5714l0.71429-4.2857s-8.2143-1.7857-11.786-3.5714c-3.5714-1.7857-15.357-10.357-18.929-10.714-3.5714-0.35714-36.429-1.0714-36.429-1.0714s-17.5-3.5714-23.214-3.5714c-5.7143 0-28.522-1.4684-33.571 0.35715-1.3956 0.50461-4.0949-0.50759-7.6308-1.1541-3.3106-0.6053-7.3766-0.77986-11.164-2.23-10.216-3.9111-20.083-9.9803-19.776-10.902z" fill="#c8ab37"/>
  <path d="m440.41 392.31c-2.8595 1.717 1.5082 3.594-0.40625 4.5625 6.0843 3.2968 11.923 7.1539 17.969 10.562l-4.5312-1.5938c-5.779-3.0705-11.541-6.1764-17.438-9-0.3043 0.84674-0.61804 1.6901-0.9375 2.5312 0.80693 0.62783 2.6094 1.3173 3.6875 1.6875 0.58637 1.2264-0.27046 2.4932-0.68755 3.5312-0.33294 0.26121-0.85538 0.28944-1.375 0.21875l-5.9688-2.0938c-0.39121 1.5654-0.50838 3.3336-0.7187 4.6564 7.041 2.5104 14.379 4.9652 20.719 7.125l-15.719 1.7812 0.92354 4.5013c5.7631-0.95482 13.547-2.2937 18.858-1.6263l9.875 1.4062s4.9827 3.7406 9.9062 7.4375c3.4816 2.6764 6.9666 5.3474 10.5 7.9375 7.8846 7.482 17.502 9.6284 25.344 12.906 9.5826 3.7406 18.865 8.207 27.906 11.312 5.6003 1.9026 11.238 2.7424 17.094 3.375 0.0195 5e-3 0.043-5e-3 0.0625 0 9.4426 3.4358 18.741 7.5295 27.031 11.344 0.49697-0.60122 0.115-0.23998 0.55362-0.80235l-21.298-9.9088c5.9804-0.69117 19.198 1.4481 25.807 2.0548 9.3665 1.0593 19.3 4.9246 27.437 7.8973l0.21875-1.2411c-4.4508-1.8668-10.162-4.3891-13.21-6.3061l5.7416-0.9751c2.7784-0.19673 5.2762-0.67956 7.8125-0.46875 3.1668 1.287 6.4751 2.6665 9.7812 4.0312 0.0533-0.35609 0.0509-0.63565 0-0.875v-4.125s-13.549-5.3571-18.906-7.5c-5.3572-2.1429-16.781-5-16.781-5 2.9816-0.18958 5.9707-0.18723 9.3125 0 4.5313 0.28444 9.3033-0.59269 13.688 0.46875l10.562 4.1562c0.0456-1.7347 0.19039-2.3288 0.25-2.4688-14.733-6.4116-31.643-12.364-44.875-17.562-14.182-5.2378-28.36-10.5-42.719-15.219-16.332-1.8754-32.749-2.5654-49.156-3.4688l-9.5938-3.375c17.374 1.3448 34.834 1.7961 51.969 5.25 14.932 2.1813 29.528 6.2921 43.406 12.188 9.7456 3.5172 19.547 6.9218 29.089 10.719 8.3893 3.338 17.316 6.7624 24.848 9.6562 0.25488-1.6808-3.892-2.9547-6.0312-3.7812l-17.875-6.9062c-3.9701-1.5339-8.7496-4.2727-12.719-5.9688-16.839-7.1951-33.948-14.33-52.156-17.281-19.35-4.0469-39.074-5.6079-58.781-6.5625-7.3567 6e-3 -13.901-3.3248-20.094-6.9688-2.2935-1.3-7.7135-4.3324-2.0938-1.5312 7.1449 4.7313 15.605 4.6851 23.812 5.0625 14.177 1.0327 28.755 0.10287 42.438 4.5625 21.182 5.368 42.091 11.704 62.875 18.406 8.7896 2.8098 20.421 1.6311 30.062 6.3438 3.0207 1.4764 8.8152 5.4392 11.725 6.5753 0.66717-0.2027 0.96204-2.1378 0.96204-2.1378s-2.0856 0.23613-3.5312-0.625c-7.6586-4.562-15.546-9.768-24.812-9.7188-6.8682 0.26642-12.045-2.9333-18.531-4.9062-22.526-7.5396-45.517-13.569-68.531-19.406-15.557-1.6976-31.248-1.4706-46.812-3.0625-8.7783-3.6252-17.43-7.561-25.938-11.781zm96.906 15.75c5.5717 4.0547 13.156 5.8733 19.5 9.0938 13.401 5.5682 27.437 10.414 41.906 11.938-5.9586-2.0583-13.613-5.6072-20.562-7.2812-11.94-3.4328-23.265-8.5871-34.594-13.594-2.0834-0.0485-4.1668-0.10273-6.25-0.15625zm31 2.9375c-3.9125 0.0284-8.8945 3.38-1.8125 1.75 6.5482-1.3757 11.778 4.3185 17.531 6.5 6.133 3.7124 13.15 5.3253 19.531 8.4688 0.64047-2.7648 0.78039-6.2561 0-1.4375-7.4-3.3704-15.273-5.647-22.281-9.9062-4.0376-1.7459-7.7524-4.9458-12.219-5.3438-0.24757-0.0303-0.48916-0.0331-0.75-0.0312zm-65.812 10.25c7.979 0.59629 16.73-0.38076 23.688 4.25 13.115 6.6765 26.728 13.025 41.531 14.625 8.9509 1.991 18.146 2.9908 27 5.2812 2.3875 1.2796 16.279 4.8954 10.406 4.8125-3.5086-0.0424-7.3199 0.43944-10.625-0.0625-7.5606-1.1482-12.354-2.5172-18.125-4.8125-8.2767-3.2922-17.067-5.1497-25.969-5.7812-10.041-2.8376-18.889-8.8295-28.906-11.844-6.2946-2.2786-12.657-4.3326-19-6.4688zm25.594 1.9375c12.689 0.83699 24.073 7.0493 36 10.875 3.2093 1.3608 14.027 4.7993 12 4.75-12.936-2.1992-26.067-4.438-37.781-10.688-3.4274-1.5878-6.8336-3.262-10.219-4.9375zm-22.375 2.1875c9.4538 3.3631 19.794 6.8446 27.875 10.375l-11.438-3.0312z" color="#000000" fill="#a80" style="block-progression:tb;text-indent:0;text-transform:none"/>
  <path d="m439.71 394c-1.4089 0.8682 1.7518 1.3317 2.1334 1.5608 7.7996 4.1376 16.977 8.6515 25.184 11.944 15.581 1.6464 31.338 1.4004 46.898 3.0667 24.509 6.2143 60.727 17.444 73.386 21.46 1.4516 0.46048 1.8141 0.18346 4.448 0.36203 0 0-52.784-16.518-77.591-22.795-15.565-1.696-31.329-1.4536-46.923-3.0625-8.9221-3.6677-18.968-8.2228-27.536-12.536zm1.3795 2.1607c-1.2707 1.1446 1.8391 1.7889 2.3814 2.4286 9.6081 5.4582 18.82 12.045 29.306 15.696 16.732 1.7443 33.648 1.4665 50.238 4.5542 15.689 2.4209 31.511 5.1726 46.127 11.626 10.242 3.8397 20.44 7.5368 30.712 11.131 7.6609 2.7665-2.0518-1.0383-2.418-1.3166-14.602-5.3515-28.885-11.63-43.691-16.389-17.822-4.4579-36.075-7.3889-54.388-8.7815-9.4102-0.74795-19.021-0.49535-28.268-2.3786-10.512-4.4705-20.095-11.097-30-16.57zm-5.125 2.6741c-1.4159 0.97779 6.5437 3.9575 7.0197 4.2536 10.812 6.2123 22.518 12.032 33.664 17.331 1.6121 0.76648 3.1737 1.8922 4.588 2.5791 12.267 5.9584 24.823 11.569 37.948 15.381 9.6956 1.6102 19.795 1.2666 29.188 4.1562 8.9538 1.8778 21.097 3.1975 29.547 5.9555 3.8833 1.2674 7.9077 2.7219 11.87 3.4499 8.8358-0.50707 4.4267-0.48537-2.8553-1.7394-10.526-1.8126-20.317-6.8363-31.06-7.6656-6.267-0.11131-11.73-2.9156-17.222-5.6541-13.337-6.502-27.716-10.414-41.655-15.378 8.6109 0.59159 14.275 0.36695 22.768 1.3667 1.5552 0.18305 6.1119 1.8468 6.7816 2.7202 12.479 6.0467 25.005 12.792 38.98 14.476 9.2529 1.6719 18.544 3.6942 27.791 5.0551 6.1382 1.7743 21.93 8.2023 28.169 10.242-3.5832-1.8794-10.51-4.9886-11.093-5.1928-24.6-8.6034-48.784-18.402-73.49-26.699-19.841-2.2778-39.873-2.8072-59.781-4.0938-12.805-5.118-28.722-14.688-41.156-20.545zm1.0625 6.0759c-1.1164 0.3633 2.0196 2.173 2.7037 1.7634 12.318 4.9694 23.672 8.6397 34.475 16.605 12.724 7.4674 25.614 15.915 40.558 17.883 16.761 3.1384 33.578 5.9624 50.358 8.9989-12.036-0.31563-24.108-6e-3 -36.031-2.0312-9.6863-1.4556-20.001-1.9968-28.283-7.8357-5.5678-3.1998-23.414-14.811-36.481-20.904-15.405-7.1832-26.257-8.9251-32.879-12.557-1.3511 0.61467 34.379 13.564 34.843 13.605 14.106 8.1795 27.461 17.715 42.112 24.91 3.1 1.5246 7.5113 0.9193 10.201 2.6044 16.087 4.6861 32.138 10.791 49.09 11.199 9.0999 0.15601 18.102 1.564 26.709 4.5714 3.2176 0.71508 6.1571 1.9873 9.3582 2.3677 7.407-0.88726-0.48635-0.73254-2.607-1.3375-10.405-2.9682-20.759-6.6127-31.702-6.5146-12.106-0.12675-23.85-3.1482-35.361-6.6407-2.5428-0.8302-12.081-3.3606-9.6487-3.1434 11.479 1.9269 23.094 2.7166 34.725 2.5229 7.5617 0.0406 15.168-0.0143 22.401 2.5452 11.355 3.2305 32.07 11.398 43.262 14.948-6.1341-3.2838-11.873-5.0122-12.391-5.1308-16.418-5.5469-32.056-12.301-49.334-14.583-19.431-3.6018-39.052-6.3626-58.302-10.837-14.07-5.2373-26.71-13.551-39.413-21.368-9.2265-4.3774-18.779-8.1735-28.36-11.641zm100.64 3.4643c0.80913 1.0056 2.2646 1.7457 2.767 1.6814 12.759 5.384 25.245 11.468 38.621 15.229 6.1364 1.7352 12.813 3.1632 19.112 3.8261 2.6979-0.24333-4.9457-0.54029-5.201-0.91537-14.811-4.1166-27.627-7.9106-41.536-14.536-4.2552-1.79-9.4674-3.6301-13.763-5.2858zm-59.362 12.192c5.3015 0.31043 10.988 0.24717 16.066 0.96849 16.008 5.9271 32.742 10.371 48.037 18.202 5.9308 2.6807-8.6428-0.65354-11.919-0.68455-8.0603-0.73141-15.96-2.5135-23.332-5.9146-9.7235-3.9412-19.312-8.2093-28.853-12.572zm45.75 2.6562c7.3551 0.28341 14.701 1.204 21.492 4.2112 14.705 5.2599 29.371 10.625 44.008 16.07-12.321-2.493-24.868-4.0944-37.002-7.3834-9.8066-3.5704-19.169-8.248-28.498-12.898z" color="#000000" fill="#806600" style="block-progression:tb;text-indent:0;text-transform:none"/>
  <path d="m449.64 418.74c-0.55469 2.2288 3.8643 2.0142 4.672 1.5152 0.82099-0.50717 6.1786-13.892 5.177-14.142 1.0578 6.352 0.9905 8.3143-2.1466 13.448 0 0-0.12645 1.2998 0.26656 1.732 0.66855 0.73512 3.269-0.0274 3.269-0.0274s2.3978 1.473 2.9673 0.82074c3.6458-4.1755 8.761-16.837 8.8388-17.993 0.0935-1.3887-2.3149-3.0438-4.1038-1.1364l0.69448 0.50507c-1.5077 3.4298-2.8348 7.2272-4.9245 10.354 0 0 0.11021-11.193-1.5784-14.016-0.27097-0.45293-1.1996-0.88388-1.1996-0.88388s0.0131-0.71-0.50507-1.2627c-0.89428-0.95383-2.6428-0.88341-3.7881-0.25254-0.92387 0.50893-1.3258 1.7678-1.3258 1.7678l1.7678 0.88388c-1.4772 6.4474-3.9897 12.977-7.0201 18.648-0.16455 0.30791-0.89716-0.26798-1.0612 0.0402z" fill="#500"/>
  <path d="m126.14 251.56c-0.34768 1.3212-0.20826 1.9118-0.25254 2.7779 2.7385 0.40375 3.2547-0.17844 3.6618-1.389-0.71009-1.4248-1.7072-2.5679-4.0406-2.3991z" fill="#cf0"/>
  <path d="m478.05 257.15 3.2958 2.1651 0.59312-1.1878c-1.1449-0.42375-2.9274-1.1805-3.889-0.97731zm-10.829 3.7901c1.4783 0.81645 3.2286 1.0446 5.0625 1.0312l0.125-0.5c-1.8739 0.19071-3.5483-0.13532-5.1875-0.53125zm15.737 0.38839 1.9509 2.1429 0.68718-0.90561c-0.73074-0.31886-1.2694-0.81834-2.6381-1.2372zm-7.3304 2.3616 3.1837 4.2576s4.072 4.2278 4.6212 7.3062c0.12344 0.69187 0.32011 1.9362 0.32011 1.9362l1.4375-1.25s-3.2248-6.2256-5.5-8.8438c-1.1573-1.3317-4.0625-3.4062-4.0625-3.4062zm-15.469 0.96875c-0.23019 0.0706-0.38392 0.84598-0.25 3.1562-0.0893 1.1607-0.25001 5.442 1.625 7.4062 1.026 1.0749 1.5289 3.4163 2.9375 3.6562 1.4325 0.24399 2.4085-0.50165 3.5625-2.5 0.68775-1.191 0.36027-0.23254 0.625-2.3125-1.146 1.2988-1.5011 1.3105-2.6562 1.5312-1.1941 0.22816-2.5088-1.4212-2.9688-1.9062-1.5542-1.9827-1.875-7.3125-1.875-7.3125s-0.61635-1.8365-1-1.7188zm26.188 1.183 1.25 3.317 0.79945-1.1553c-0.53633-0.52862-1.5905-2.1437-2.0494-2.1616zm1.9062 5.0045c0.8027 0.87918 1.5169 1.7357 1.7188 2.9375l1.0995-0.9372c-0.89705-1.0789-2.6087-1.9264-2.8183-2.0003zm-18.875 9.0938s-0.28125 2.5178 2.2188 3.5c2.5 0.98214 4.6429 0.0982 5.625 0.1875s3.9375-3.0625 3.9375-3.0625-5.4286 2.3348-7.125 2.1562c-1.6964-0.17857-4.6562-2.7812-4.6562-2.7812z" fill="#a05a2c"/>
  <path d="m354.56 164.31s0.95982 0.65178 2.0312 1.8125c1.0714 1.1607 4.5696 3.3516 7.25 3.5625 1.3983 0.11005 4-1.25 4-1.25s-1.0178-0.10268-2.625-0.28125c-1.7836-0.19819-10.656-3.8438-10.656-3.8438zm14.906 4.2812c-0.62976 4.3856 16.045 18.265 17.531 16.812 0.50508 0.12626-6.1371-4.8192-8.9375-7.8438-2.1847-2.3596-5.2879-6.7173-8.5938-8.9688zm-15.531 2.1562c-0.19296 0.0965 3.2785 2.3368 5.1562 2.25 1.4901-0.0689 3.4911-1.2188 3.9375-2.1562-2.6624 1.014-5.7353 0.45239-9.0938-0.0937zm31.969 6.0625 0.25 3.0625s6.6071 2.4732 7.5 3.1875c0.89285 0.71429 6.4464 5.9196 9.125 6.8125s13.656 4.4375 13.656 4.4375-8.0556-4.0632-11.781-6.5938c-4.0604-2.7579-9.6518-8.9241-11.438-9.2812-1.7857-0.35714-7.3125-1.625-7.3125-1.625z" fill="#500"/>
  <path d="m426.67 267.27c-1.296-0.57235-2.0657 1.5344-0.41539 1.3921-0.4923 1.8029-2.5698 0.38649-2.8795-0.72768-2.5296 0.51445 1.7827 3.216-1.1811 3.0172-1.2888 0.33989-1.0267-0.20869-1.2028-1.0486-1.177-0.22266-1.5286 1.6205-1.6556 2.452-0.38255-1.0334-1.1493-0.83106-1.9055-1.0857-1.322-0.44509-0.72576 2.5711-2.0894 0.73777-0.83076-1.1169-2.2942 1.6919-2.2417-0.18869-0.15842-0.8677 0.62151-2.68-1.4834-2.9882-2.7003-0.39542 0.14574 4.2017-2.0853 2.9075-1.5794-0.81926 2.1765-2.3021-0.33804-3.3034-1.1615-0.93772-3.3323 2.6504-3.0704-0.1468 1.1187-1.171-1.8377-4.0116-1.3946-1.1711 0.16479 2.8259-1.3089-1.058-2.7961-0.92316-2.2401-0.9401 3.0952 0.41736 2.3777-1.8931 0.17111-2.0582-2.2638-1.0477-2.8007-0.44533-0.63368-1.9082-3.3184 1.9692-3.403-0.7194 0.63828-1.6145-2.7512-2.1132-0.14939-2.1325 2.8005-0.0789-0.10703-3.7613-1.3572-1.5061-1.4565 1.2904 0.34416-1.3832-1.4419-0.45982-1.1552 0.5972-0.55174 2.9386-1.2966 0.58259-0.24771-1.3472-0.52605-1.5291-1.6364-1.6227-2.1606-1.9206 1.2192-2.9068 2.0976-4.011-1.3364-1.3161-3.479-0.6967-4.4101 0.79223 0.26214-1.1696 0.56524-2.2093-1.1416-1.7725-1.3325-0.11735 0.13364 2.2796-1.5147 1.3037-1.6615-0.35278-1.8053-2.3296-0.0312-2.5625-2.1926-1.6388-3.1853 2.593-5.125 0.46875-1.4805-0.54381-1.2038-1.8292 0.37891-1.6272 1.7021-1.4828-2.0409-1.0764-2.7049-0.17102-1.7529 1.847 2.5912 2.2971 3.5685 3.4967 9.3091 5.8338 16.663 14.367 26.333 19.664 2.4151 1.1583 5.0862 2.6108 7.8397 1.8194 5.1871-1.2269 10.061-3.4823 14.922-5.6067-0.65055-1.7693-2.7515-2.711-4.1517-3.9374-2.3757 0.27015 1.2503 3.683-1.6151 1.4164z" fill="#333"/>
  <path d="m411.64 197.64c2.8328 0.77294 1.6415 4.5457 1.6415 4.5457-0.93296-1.0178-0.93719-3.141-3.0305-2.7779l-1.0102 2.0203s2.1373 1.331 2.005 2.4667c-0.21555 1.8507-1.6262 4.0993-2.8889 4.0993s-2.0203-1.0102-2.0203-1.0102 2.0943-0.90818 1.968-1.9183-1.0841-1.4909-1.0841-1.4909c1.0277-3.2884 2.7122-6.1724 4.4194-5.9346z" fill="#784421"/>
  <path d="m374.66 255.28c-1.7392-0.20277-3.3791 0.52428-5.0625 0.84375 3.7868 2.9414 7.7014 5.7269 11.402 8.7737 4.7932 4.3689 9.8131 8.5322 14.185 13.332 3.33 3.9184 6.6764 8.2067 11.44 10.44 4.9997 1.3833 10.299 1.1421 15.43 0.82465 2.7127-0.34141 5.6528-0.41255 8.0436-1.8701 0.92478-0.58117 2.0755-1.5507 2.3632-2.4782 0.29287-0.94414-0.29714-1.8469-1.6214-2.5138-1.6066-1.7436-2.3342-0.44982-2.273 0.77322 2.1548-0.2452-1.2391 2.3462-0.78616 0.0996-1.8906-2.039-0.16979 3.0952-2.6513 2.3379-2.8048 1.158 1.5931-2.3721-1.6626-3.0777-0.44649 1.4691-2.0596 4.9708-2.0474 1.9038-0.42207-2.8629-0.73623-0.31134-1.7743 1.0004-1.3312 2.3241-1.9532 0.18653-1.5056-1.3832-1.9248-2.1047-3.3408 0.34423-3.2676 1.8206-2.004 1.7736 7e-4 -2.5204-3.1176-1.8263 1.3799-0.85915 2.034-2.4398-0.48277-2.3662-2.6991 0.079-1.0382 4.34-3.486 2.3037 2.1744-2.4321-1.2559-3.5262-1.75-2.4062-1.2564 2.8478-2.3893-0.8031-0.5625-1.6562-0.11401-2.1114-2.4858-0.67856-3.6337-0.44527 0.36113-2.9101-1.5116-1.8248-2.7936-2.6071 0.19198-0.82253 1.4114-0.47602-0.10386-2.4789-1.445 0.38272-2.0083 1.1009-1.5714-0.60015-0.42583-3.1285-2.5533 1.7092-3.2724-1.1812 1.3263-1.2986 0.87473-3.2963-1.4294-3.5263 0.13419-0.17194 0.7993-2.9794-0.75807-1.88-0.41267 1.6707-1.5012-3.2706-3.0625-0.59375 1.0846 2.0054-1.4449-2.959-1.6562-0.0312 0.13346 2.0134-3.1735-1.4867-1.0312-1.5938 1.5888-2.0489-3.6304 0.94635-1.525-1.5253 1.4948-1.0516-2.0091-3.6292-2.1342-1.3864-1.3893 0.43851-3.482-2.0772-1.1066-2.2796 1.6905-2.331-2.8366-3.1424-3.5779-1.7774-0.54349-1.5188-1.5214-2.4307-3.1562-2.9688z" fill="#333"/>
  <path d="m348.95 248.35c-0.25075-0.55767-0.4347-1.1839-0.875-1.625-0.67118-0.36988-0.64205 0.70033-0.34174 1.0374 0.49965 0.65999-0.6844 0.39589-0.99913 0.27381-0.39302-0.1332-0.96275-0.23664-1.2266-0.43883 0.41752-0.44201 6e-3 -0.30806-0.61484-0.37083-0.21179-0.1491-0.89567 0.0711-0.82946-0.01 0.36105-0.28298 0.9512-0.58656 0.54744-0.80431-0.75689-0.40818-1.3472 0.0204-1.9312 0.74339-0.42349 0.41003-1.0384 0.0366-1.3991-0.27523-0.37053-0.23169-0.4715-0.51916-0.24224-0.90077 0.16035-0.73792-0.40599-0.76089-0.92128-0.57732-0.97765 0.81056-2.2689 1.5982-3.399 2.8664 3.1083-0.16335 7.2138 0.22976 9.8134 2.1113 0.94226 0.69506 1.9122 2.0553 2.4499 3.1036-0.15043-1.4541-0.0931-3.6768-0.0313-5.1339z" fill="#333"/>
 </g>
</svg>
